<?xml version="1.0" encoding="UTF-8"?><svg id="Layer_2" xmlns="http://www.w3.org/2000/svg" viewBox="0 0 322.11 615.39"><defs><style>.cls-1,.cls-2{fill:none;}.cls-1,.cls-2,.cls-3,.cls-4{stroke:aqua;stroke-miterlimit:10;}.cls-1,.cls-3,.cls-4{stroke-width:6px;}.cls-2{stroke-width:5px;}.cls-3,.cls-5{fill:aqua;}.cls-4{fill:#fff;}.cls-5{stroke-width:0px;}</style></defs><g id="Layer_1-2"><line class="cls-2" x1="27.86" y1="179.9" x2="157.82" y2="69.67"/><rect class="cls-5" x="25.36" y="163.65" width="5" height="32.5" transform="translate(-109.75 60.73) rotate(-40.31)"/><line class="cls-2" x1="287.77" y1="179.9" x2="157.82" y2="69.67"/><rect class="cls-5" x="271.53" y="177.4" width="32.5" height="5" transform="translate(-35.57 282.99) rotate(-49.69)"/><line class="cls-2" x1="27.86" y1="212.32" x2="157.82" y2="102.09"/><rect class="cls-5" x="25.36" y="196.07" width="5" height="32.5" transform="translate(-130.73 68.43) rotate(-40.31)"/><line class="cls-2" x1="287.77" y1="212.32" x2="157.82" y2="102.09"/><rect class="cls-5" x="271.53" y="209.82" width="32.5" height="5" transform="translate(-60.29 294.44) rotate(-49.69)"/><line class="cls-2" x1="27.86" y1="244.74" x2="157.82" y2="134.51"/><rect class="cls-5" x="25.36" y="228.49" width="5" height="32.5" transform="translate(-151.7 76.12) rotate(-40.31)"/><line class="cls-2" x1="287.77" y1="244.74" x2="157.82" y2="134.51"/><rect class="cls-5" x="271.53" y="242.24" width="32.5" height="5" transform="translate(-85.02 305.89) rotate(-49.69)"/><line class="cls-2" x1="27.86" y1="277.16" x2="157.82" y2="166.93"/><rect class="cls-5" x="25.36" y="260.91" width="5" height="32.5" transform="translate(-172.67 83.82) rotate(-40.31)"/><line class="cls-2" x1="287.77" y1="277.16" x2="157.82" y2="166.93"/><rect class="cls-5" x="271.53" y="274.66" width="32.5" height="5" transform="translate(-109.74 317.33) rotate(-49.69)"/><line class="cls-2" x1="27.86" y1="309.58" x2="157.82" y2="199.35"/><rect class="cls-5" x="25.36" y="293.33" width="5" height="32.5" transform="translate(-193.64 91.52) rotate(-40.31)"/><line class="cls-2" x1="287.77" y1="309.58" x2="157.82" y2="199.35"/><rect class="cls-5" x="271.53" y="307.08" width="32.5" height="5" transform="translate(-134.47 328.78) rotate(-49.69)"/><line class="cls-2" x1="27.86" y1="342.01" x2="157.82" y2="231.78"/><rect class="cls-5" x="25.36" y="325.76" width="5" height="32.5" transform="translate(-214.62 99.21) rotate(-40.31)"/><line class="cls-2" x1="287.77" y1="342.01" x2="157.82" y2="231.78"/><rect class="cls-5" x="271.53" y="339.51" width="32.5" height="5" transform="translate(-159.19 340.23) rotate(-49.69)"/><line class="cls-2" x1="27.86" y1="374.43" x2="157.82" y2="264.2"/><rect class="cls-5" x="25.36" y="358.18" width="5" height="32.5" transform="translate(-235.59 106.91) rotate(-40.31)"/><line class="cls-2" x1="287.77" y1="374.43" x2="157.82" y2="264.2"/><rect class="cls-5" x="271.53" y="371.93" width="32.5" height="5" transform="translate(-183.92 351.68) rotate(-49.69)"/><line class="cls-2" x1="27.86" y1="406.85" x2="157.82" y2="296.62"/><rect class="cls-5" x="25.36" y="390.6" width="5" height="32.5" transform="translate(-256.56 114.61) rotate(-40.31)"/><line class="cls-2" x1="287.77" y1="406.85" x2="157.82" y2="296.62"/><rect class="cls-5" x="271.53" y="404.35" width="32.5" height="5" transform="translate(-208.64 363.13) rotate(-49.69)"/><line class="cls-2" x1="27.86" y1="439.27" x2="157.82" y2="329.04"/><rect class="cls-5" x="25.36" y="423.02" width="5" height="32.5" transform="translate(-277.53 122.3) rotate(-40.31)"/><line class="cls-2" x1="287.77" y1="439.27" x2="157.82" y2="329.04"/><rect class="cls-5" x="271.53" y="436.77" width="32.5" height="5" transform="translate(-233.37 374.58) rotate(-49.69)"/><line class="cls-2" x1="27.86" y1="471.69" x2="157.82" y2="361.46"/><rect class="cls-5" x="25.36" y="455.44" width="5" height="32.5" transform="translate(-298.51 130) rotate(-40.31)"/><line class="cls-2" x1="287.77" y1="471.69" x2="157.82" y2="361.46"/><rect class="cls-5" x="271.53" y="469.19" width="32.5" height="5" transform="translate(-258.09 386.03) rotate(-49.69)"/><line class="cls-2" x1="27.86" y1="504.12" x2="157.82" y2="393.89"/><rect class="cls-5" x="25.36" y="487.87" width="5" height="32.5" transform="translate(-319.48 137.7) rotate(-40.31)"/><line class="cls-2" x1="287.77" y1="504.12" x2="157.82" y2="393.89"/><rect class="cls-5" x="271.53" y="501.62" width="32.5" height="5" transform="translate(-282.82 397.48) rotate(-49.69)"/><line class="cls-2" x1="27.86" y1="536.54" x2="157.82" y2="426.31"/><rect class="cls-5" x="25.36" y="520.29" width="5" height="32.5" transform="translate(-340.45 145.39) rotate(-40.31)"/><line class="cls-2" x1="287.77" y1="536.54" x2="157.82" y2="426.31"/><rect class="cls-5" x="271.53" y="534.04" width="32.5" height="5" transform="translate(-307.54 408.93) rotate(-49.69)"/><line class="cls-2" x1="27.86" y1="568.96" x2="157.82" y2="458.73"/><rect class="cls-5" x="25.36" y="552.71" width="5" height="32.5" transform="translate(-361.42 153.09) rotate(-40.31)"/><line class="cls-2" x1="287.77" y1="568.96" x2="157.82" y2="458.73"/><rect class="cls-5" x="271.53" y="566.46" width="32.5" height="5" transform="translate(-332.27 420.38) rotate(-49.69)"/><line class="cls-2" x1="27.86" y1="601.38" x2="157.82" y2="491.15"/><rect class="cls-5" x="25.36" y="585.13" width="5" height="32.5" transform="translate(-382.4 160.79) rotate(-40.31)"/><line class="cls-2" x1="287.77" y1="601.38" x2="157.82" y2="491.15"/><rect class="cls-5" x="271.53" y="598.88" width="32.5" height="5" transform="translate(-356.99 431.83) rotate(-49.69)"/><path class="cls-1" d="m162.46,130.6C189.96,50.68,232.22.4,266.79,3.1c7.68.6,20.25,4.23,34.18,22.36"/><path class="cls-1" d="m157.92,130.6C130.42,50.68,88.16.4,53.59,3.1c-7.68.6-20.25,4.23-34.18,22.36"/><path class="cls-3" d="m254.56,162.63c0-52.67-42.7-95.36-95.36-95.36-29.2,0-50.18,13.94-55.89,18.09-31.82,23.11-39.49,59.6-39.47,77.28.01,14.13,4.02,27.47,4.02,27.47,1.7,5.65,3.9,11.08,6.57,16.23l36.97,164.9,28.86,128.72c4.45,19.86,32.76,19.86,37.21,0l28.86-128.72,36.46-162.65c7.51-13.63,11.79-29.29,11.79-45.96Z"/><path class="cls-4" d="m94.18,199.15l-1.23-2.39c-2.09-4.05-3.81-8.31-5.12-12.67-.01-.05-3.13-10.75-3.14-21.49-.01-14.1,6.48-42.68,30.87-60.39,4.56-3.31,21.17-14.11,43.64-14.11,41.09,0,74.52,33.43,74.52,74.52,0,12.56-3.18,24.97-9.2,35.9l-1.43,2.6-64.23,286.5L94.18,199.15Z"/><path class="cls-4" d="m113.93,191.97l-2.47-4.77c-1.48-2.87-2.71-5.88-3.64-8.97-.65-2.31-2.29-9.46-2.29-15.63,0-9.45,4.64-30.7,22.27-43.5,2.33-1.69,14.79-10.13,31.39-10.13,29.59,0,53.67,24.07,53.67,53.67,0,9.05-2.29,17.98-6.61,25.83l-2.87,5.2-44.54,198.66-44.92-200.35Z"/><path class="cls-4" d="m133.69,184.79l-3.7-7.16c-.87-1.68-1.59-3.44-2.15-5.23-.52-1.94-1.46-6.68-1.46-9.81,0-3.52,2.31-18.36,13.68-26.62.35-.25,8.59-6.15,19.14-6.15,18.1,0,32.82,14.72,32.82,32.82,0,5.54-1.39,11-4.02,15.77l-4.3,7.8-24.84,110.82-25.16-112.23Z"/><path class="cls-3" d="m153.45,177.61l-4.93-9.55c-.24-.47-.45-.96-.63-1.46-.24-1.05-.54-2.81-.63-3.79.29-2.16,1.77-7.47,4.92-9.88,1.02-.65,4.15-2.27,7.03-2.27,6.6,0,11.97,5.37,11.97,11.97,0,2.03-.5,4.01-1.44,5.71l-5.73,10.4-5.15,22.97-5.4-24.11Z"/><circle class="cls-4" cx="18.01" cy="23.16" r="15.01"/><circle class="cls-4" cx="304.1" cy="39.06" r="15.01"/><circle class="cls-4" cx="111.9" cy="117.74" r="15.01"/><circle class="cls-4" cx="205.5" cy="117.74" r="15.01"/><circle class="cls-5" cx="111.51" cy="112.64" r="12.36"/><circle class="cls-5" cx="206.09" cy="112.64" r="12.36"/></g></svg>