<?xml version="1.0" encoding="UTF-8"?><svg id="Layer_2" xmlns="http://www.w3.org/2000/svg" viewBox="0 0 600 483.21"><defs><style>.cls-1{fill:none;stroke:#fff200;}.cls-1,.cls-2{stroke-miterlimit:10;stroke-width:3px;}.cls-2{stroke:#fff;}.cls-2,.cls-3{fill:#fff200;}.cls-3,.cls-4{stroke-width:0px;}.cls-4{fill:#fff;}</style></defs><g id="Layer_1-2"><path class="cls-3" d="m519.18,483.21c-11.09,0-23.26-1.46-36.33-4.4-42.74-9.63-90.24-34.04-133.77-68.73-17.28-13.78-33.24-28.64-47.47-44.19-14.22,15.55-30.18,30.41-47.47,44.19-43.52,34.7-91.03,59.11-133.77,68.73-43.26,9.74-76.58,3.19-93.84-18.46-17.26-21.64-16.22-55.59,2.91-95.59,18.9-39.52,53.28-80.39,96.81-115.09,10.79-8.6,22.01-16.69,33.38-24.08-11.75-8.05-23.49-16.75-34.93-25.87-43.46-34.65-79.73-73.01-102.14-108.03C-.24,56.06-5.99,27.9,6.36,12.41,18.72-3.09,47.45-3.75,87.27,10.54c39.13,14.05,84.61,40.86,128.07,75.51,33.19,26.46,62.33,55.21,84.43,83.28,22.12-28.22,51.35-57.11,84.69-83.69,43.46-34.65,88.96-61.44,128.12-75.45,39.85-14.25,68.62-13.54,81.02,2.01,12.4,15.55,6.68,43.76-16.09,79.43-22.38,35.06-58.64,73.44-102.09,108.09-10.92,8.7-22.15,17.04-33.43,24.82,11.92,7.66,23.67,16.11,34.99,25.13,43.52,34.7,77.9,75.57,96.81,115.09,19.13,40,20.17,73.94,2.91,95.59-12.04,15.1-31.91,22.86-57.5,22.86Zm-217.57-123.49l1.54,1.7c14.46,16,30.78,31.28,48.51,45.42,43.04,34.32,89.95,58.44,132.09,67.93,41.63,9.38,73.48,3.34,89.69-17,33.83-42.44-10.6-134.34-99.06-204.86h0c-12.03-9.59-24.57-18.53-37.26-26.55l-2.66-1.68,2.6-1.77c12.06-8.22,24.09-17.11,35.76-26.41,43.11-34.37,79.04-72.4,101.18-107.08,21.43-33.57,27.39-60.77,16.34-74.62-11.05-13.85-38.89-14.11-76.39-.69-38.74,13.86-83.82,40.42-126.93,74.79-33.91,27.03-63.52,56.45-85.63,85.08l-1.63,2.12-1.64-2.11c-22.09-28.48-51.62-57.76-85.38-84.68C169.65,54.91,124.59,28.33,85.87,14.43,48.4.98,20.6,1.19,9.6,14.99-1.4,28.79,4.6,55.93,26.06,89.47c22.17,34.64,58.12,72.65,101.23,107.02,12.2,9.72,24.73,18.95,37.26,27.44l2.6,1.76-2.65,1.69c-12.15,7.76-24.14,16.35-35.65,25.53C40.39,323.43-4.05,415.33,29.79,457.77c16.21,20.34,48.06,26.37,89.69,17,42.14-9.49,89.05-33.62,132.09-67.93,17.74-14.14,34.06-29.42,48.51-45.42l1.54-1.7Z"/><path class="cls-3" d="m519.06,472.14h0c-45.91,0-108.4-27.09-163.09-70.69-17.44-13.91-33.49-28.93-47.69-44.65l-6.65-7.36-6.65,7.36c-14.2,15.72-30.25,30.74-47.69,44.65-54.7,43.61-117.19,70.69-163.09,70.69-15.56,0-36.7-3.24-49-18.67-14.27-17.89-12.72-48.49,4.24-83.95,18.2-38.04,51.49-77.54,93.73-111.22,11.32-9.02,23.12-17.47,35.07-25.11l11.49-7.34-11.28-7.64c-12.38-8.39-24.77-17.51-36.83-27.12-42.53-33.91-77.95-71.32-99.72-105.35C12.39,55.31,6.08,30.46,14.99,19.29c5.25-6.58,15.54-7.97,23.25-7.97,39.27,0,107.68,33.5,170.21,83.36,33.34,26.58,62.47,55.46,84.23,83.51l7.1,9.15,7.08-9.17c21.78-28.2,50.99-57.21,84.47-83.9,62.45-49.78,130.83-83.23,170.17-83.23,7.77,0,18.15,1.4,23.45,8.05,8.96,11.24,2.69,36.14-16.76,66.61-21.74,34.06-57.14,71.49-99.67,105.4-11.54,9.2-23.44,17.99-35.35,26.1l-11.28,7.69,11.54,7.3c12.48,7.89,24.81,16.68,36.65,26.12,42.24,33.68,75.53,73.18,93.73,111.22,16.96,35.45,18.5,66.05,4.24,83.95-12.3,15.43-33.43,18.67-48.99,18.67Zm0-4.14h0c14.65,0,34.48-2.97,45.76-17.11,13.24-16.61,11.51-45.61-4.74-79.58-17.93-37.49-50.81-76.48-92.58-109.77-11.72-9.34-23.92-18.04-36.28-25.85l-16.87-10.67,16.49-11.24c11.83-8.06,23.64-16.78,35.1-25.92,42.19-33.63,77.26-70.7,98.76-104.39,17.91-28.05,24.59-52.31,17.02-61.8-4.27-5.36-13.35-6.49-20.21-6.49-38.47,0-105.83,33.09-167.59,82.33-33.23,26.49-62.2,55.26-83.77,83.2l-10.35,13.4-10.38-13.38c-21.56-27.8-50.45-56.44-83.54-82.82C144.02,48.59,76.65,15.46,38.24,15.46c-6.8,0-15.79,1.11-20.01,6.41-7.53,9.44-.81,33.64,17.12,61.65,21.54,33.65,56.63,70.71,98.82,104.34,11.97,9.54,24.27,18.6,36.57,26.93l16.49,11.17-16.79,10.73c-11.83,7.56-23.51,15.92-34.72,24.86-41.76,33.3-74.64,72.28-92.58,109.77-16.25,33.97-17.98,62.97-4.74,79.58,11.28,14.14,31.11,17.11,45.77,17.11,45.01,0,106.51-26.74,160.51-69.79,17.27-13.77,33.15-28.64,47.2-44.19l9.72-10.76,9.72,10.76c14.05,15.56,29.94,30.42,47.2,44.19,53.99,43.04,115.49,69.79,160.51,69.79Z"/><path class="cls-3" d="m519.06,461.1h0c-43.53,0-103.38-26.17-156.21-68.29-16.97-13.53-32.58-28.14-46.39-43.42l-14.84-16.43-14.84,16.43c-13.81,15.28-29.41,29.89-46.39,43.42-52.83,42.12-112.69,68.29-156.21,68.29-13.14,0-30.81-2.52-40.37-14.51-11.36-14.25-9.28-41.28,5.56-72.3,17.49-36.57,49.69-74.7,90.65-107.36,11.02-8.78,22.5-17,34.13-24.44l25.62-16.37-25.17-17.05c-12.15-8.23-24.31-17.18-36.14-26.61-41.61-33.17-76.17-69.63-97.31-102.67C21.6,49.23,20.02,30.68,23.62,26.17c.71-.89,3.87-3.81,14.62-3.81,36.39,0,103.55,33.29,163.33,80.95,32.67,26.04,61.16,54.28,82.39,81.65l15.84,20.42,15.8-20.45c21.25-27.51,49.82-55.87,82.61-82.02,59.69-47.59,126.84-80.83,163.29-80.83,8.64,0,13.32,2.01,14.82,3.89,4.55,5.71-.02,26.5-17.44,53.79-21.11,33.06-55.64,69.54-97.25,102.7-11.33,9.03-22.99,17.65-34.68,25.61l-25.18,17.16,25.75,16.28c12.15,7.68,24.15,16.23,35.67,25.42,40.97,32.66,73.16,70.79,90.65,107.36,14.84,31.03,16.92,58.06,5.56,72.3-9.56,11.99-27.23,14.51-40.36,14.51Zm0-4.14h0c12.23,0,28.59-2.25,37.13-12.95,10.34-12.98,8.08-38.37-6.06-67.93-17.23-36.02-49.01-73.63-89.5-105.91-11.4-9.09-23.28-17.55-35.3-25.16l-31.08-19.65,30.38-20.71c11.6-7.91,23.19-16.46,34.43-25.43,41.26-32.89,75.47-69.01,96.34-101.7,19.02-29.79,19.62-46.56,17.69-48.98-.02-.02-2.4-2.33-11.59-2.33-35.6,0-101.69,32.87-160.71,79.92-32.55,25.95-60.87,54.06-81.92,81.31l-19.07,24.69-19.12-24.65c-21.04-27.12-49.29-55.11-81.7-80.95C139.88,59.41,73.78,26.5,38.24,26.5c-9.02,0-11.37,2.23-11.39,2.25-1.16,1.45-2.8,16.63,17.79,48.82,20.9,32.66,55.14,68.76,96.4,101.66,11.75,9.36,23.82,18.25,35.88,26.42l30.38,20.58-30.92,19.76c-11.51,7.36-22.88,15.49-33.78,24.19-40.49,32.28-72.27,69.89-89.5,105.91-14.14,29.56-16.41,54.96-6.06,67.94,8.54,10.71,24.91,12.95,37.14,12.95,42.63,0,101.49-25.82,153.63-67.38,16.8-13.39,32.24-27.85,45.9-42.96l17.91-19.83,17.91,19.83c13.66,15.12,29.1,29.57,45.9,42.96,52.13,41.56,110.99,67.38,153.63,67.38Z"/><path class="cls-3" d="m519.06,450.07h0c-41.14,0-98.36-25.25-149.33-65.88-16.51-13.16-31.67-27.36-45.08-42.19l-23.03-25.49-23.03,25.49c-13.41,14.84-28.57,29.03-45.08,42.19-50.97,40.64-108.19,65.88-149.33,65.88-8.77,0-24.56-1.35-31.74-10.36-8.53-10.7-5.89-33.94,6.89-60.66,16.79-35.1,47.89-71.85,87.58-103.49,10.71-8.54,21.88-16.54,33.19-23.77l39.76-25.4-39.06-26.46c-11.91-8.06-23.83-16.85-35.44-26.1-40.69-32.44-74.39-67.95-94.89-99.98-13.25-20.71-16.35-33.44-17.07-37.96l-.35-2.21,2.23-.18c.92-.07,1.92-.11,2.97-.11,33.57,0,99.37,33.03,156.45,78.54,31.99,25.5,59.84,53.09,80.55,79.78l24.58,31.69,24.51-31.74c20.72-26.82,48.64-54.53,80.76-80.14,56.99-45.44,122.77-78.42,156.41-78.42,1.17,0,2.29.05,3.3.14l2.21.2-.35,2.19c-.73,4.59-3.87,17.49-17.08,38.18-20.47,32.06-54.15,67.58-94.83,100.01-11.12,8.86-22.56,17.32-34.02,25.12l-39.07,26.62,39.96,25.26c11.81,7.47,23.48,15.78,34.68,24.72,39.69,31.64,70.79,68.39,87.58,103.49,12.78,26.72,15.42,49.96,6.89,60.66-7.18,9.01-22.96,10.36-31.73,10.36Zm0-4.14h0c8.02,0,22.4-1.14,28.5-8.8,7.31-9.16,4.34-31.78-7.39-56.29-16.52-34.54-47.21-70.78-86.42-102.04-11.09-8.84-22.64-17.07-34.32-24.46l-45.29-28.63,44.27-30.17c11.37-7.75,22.73-16.14,33.77-24.94,40.33-32.15,73.69-67.31,93.92-99,11.01-17.24,14.76-28.71,16.04-34.33-.21,0-.41,0-.63,0-32.8,0-97.49,32.6-153.83,77.52-31.86,25.4-59.55,52.87-80.06,79.43l-27.78,35.97-27.86-35.91c-20.51-26.44-48.12-53.78-79.86-79.08C135.69,70.18,70.98,37.53,38.24,37.53c-.11,0-.21,0-.32,0,1.27,5.56,5.01,16.88,16.02,34.08,20.26,31.66,53.64,66.81,93.98,98.98,11.53,9.19,23.36,17.91,35.18,25.91l44.27,29.98-45.06,28.79c-11.19,7.15-22.24,15.06-32.84,23.52-39.21,31.26-69.9,67.5-86.42,102.04-11.72,24.51-14.69,47.13-7.39,56.29,6.1,7.66,20.48,8.8,28.51,8.8,40.24,0,96.47-24.9,146.75-64.98,16.33-13.02,31.33-27.06,44.59-41.73l26.1-28.89,26.1,28.89c13.25,14.67,28.26,28.71,44.59,41.73,50.27,40.08,106.5,64.97,146.75,64.98Z"/><path class="cls-3" d="m519.06,439.03h0c-38.76,0-93.34-24.32-142.45-63.47-16.04-12.79-30.77-26.58-43.77-40.96l-31.22-34.55-31.22,34.55c-13.01,14.39-27.73,28.17-43.77,40.96-49.11,39.15-103.69,63.47-142.45,63.47-13.4,0-20.72-3.2-23.11-6.2-4.61-5.79-3.3-24.93,8.22-49.02,16.08-33.62,46.09-69,84.5-99.62,10.41-8.3,21.26-16.07,32.25-23.1l53.89-34.44-52.95-35.86c-11.68-7.91-23.37-16.52-34.75-25.6-39.77-31.7-72.61-66.26-92.48-97.3-4.32-6.76-7.87-13.17-10.54-19.07l-1.67-3.69,3.97.81c34.35,7.02,89.12,37,136.3,74.62,31.32,24.97,58.53,51.91,78.71,77.92l33.32,42.95,33.23-43.02c20.18-26.13,47.47-53.19,78.91-78.25,47.37-37.77,102.29-67.74,136.67-74.58l3.92-.78-1.63,3.65c-2.69,6.02-6.27,12.56-10.66,19.43-19.83,31.07-52.65,65.63-92.4,97.32-10.9,8.69-22.12,16.98-33.35,24.63l-52.96,36.09,54.17,34.25c11.46,7.25,22.8,15.33,33.7,24.02,38.41,30.62,68.42,66,84.5,99.62,11.52,24.08,12.83,43.23,8.22,49.01-2.39,3-9.71,6.2-23.1,6.2Zm0-4.14h0c12.79,0,18.59-3.04,19.87-4.64,2.76-3.46,3.03-20.1-8.72-44.65-15.82-33.07-45.42-67.93-83.35-98.17-10.78-8.6-22-16.59-33.33-23.76l-59.49-37.62,58.17-39.64c11.14-7.59,22.28-15.82,33.1-24.45,39.41-31.42,71.9-65.62,91.49-96.31,3.37-5.28,6.25-10.35,8.59-15.11-33.58,8.14-86.5,37.51-130.83,72.86-31.18,24.86-58.23,51.67-78.21,77.55l-36.5,47.26-36.6-47.18c-19.97-25.75-46.95-52.45-78.02-77.22C140.38,88.04,88.73,59.27,54.8,50.93c2.31,4.64,5.14,9.58,8.44,14.74,19.63,30.67,52.15,64.87,91.57,96.3,11.3,9.01,22.9,17.56,34.49,25.4l58.16,39.39-59.19,37.82c-10.87,6.95-21.6,14.63-31.9,22.85-37.93,30.24-67.53,65.1-83.35,98.17-11.74,24.55-11.47,41.19-8.72,44.65,1.28,1.6,7.08,4.64,19.88,4.64,37.86,0,91.46-23.98,139.87-62.57,15.86-12.65,30.42-26.27,43.28-40.5l34.29-37.95,34.29,37.95c12.85,14.22,27.41,27.85,43.28,40.5,48.4,38.59,102,62.56,139.87,62.57Z"/><path class="cls-3" d="m519.06,427.99h0c-36.38,0-88.33-23.4-135.57-61.06-15.58-12.42-29.87-25.79-42.46-39.73l-39.41-43.62-39.41,43.62c-12.6,13.94-26.89,27.31-42.46,39.73-47.25,37.66-99.19,61.06-135.57,61.06-7.18,0-11.29-1.05-13.1-1.68l-1.26-.44-.12-1.33c-.2-2.25-.71-14.54,9.54-35.97,15.38-32.15,44.3-66.15,81.43-95.75,10.11-8.07,20.65-15.61,31.32-22.43l68.03-43.47-66.84-45.27c-11.43-7.74-22.89-16.18-34.06-25.09-35.89-28.61-66.37-59.96-85.84-88.27l-3.92-5.7,6.41,2.61c31.94,13.02,71.26,36.94,105.18,63.98,30.64,24.43,57.22,50.73,76.87,76.05l42.06,54.22,41.95-54.31c19.65-25.44,46.3-51.85,77.05-76.37,34.21-27.28,73.78-51.27,105.84-64.18l6.32-2.55-3.84,5.63c-19.43,28.49-50.03,60.06-86.18,88.87-10.69,8.52-21.68,16.64-32.69,24.14l-66.85,45.56,68.37,43.23c11.12,7.03,22.13,14.88,32.72,23.32,37.13,29.61,66.05,63.61,81.43,95.75,10.25,21.43,9.75,33.72,9.54,35.97l-.12,1.33-1.26.44c-1.81.63-5.92,1.68-13.09,1.68Zm0-4.14h0c5.18,0,8.54-.59,10.41-1.06.02-3.81-.8-14.86-9.21-32.43-15.11-31.59-43.62-65.08-80.27-94.31-10.47-8.35-21.36-16.11-32.35-23.06l-73.7-46.6,72.06-49.11c10.92-7.44,21.83-15.5,32.44-23.96,33.37-26.6,61.94-55.52,81.22-82.11-30.44,13.26-66.6,35.61-98.2,60.81-30.5,24.31-56.9,50.48-76.36,75.66l-45.21,58.54-45.34-58.45c-19.45-25.07-45.79-51.13-76.18-75.35-31.29-24.95-67.17-47.19-97.46-60.54,19.29,26.39,47.72,55.07,80.8,81.44,11.08,8.84,22.46,17.21,33.8,24.9l72.05,48.8-73.33,46.85c-10.55,6.74-20.97,14.2-30.97,22.18-36.65,29.22-65.16,62.71-80.27,94.3-8.41,17.58-9.23,28.62-9.21,32.43,1.87.47,5.23,1.06,10.41,1.06,35.48,0,86.44-23.05,132.99-60.16,15.4-12.28,29.52-25.49,41.97-39.27l42.48-47.02,42.48,47.02c12.44,13.77,26.57,26.98,41.97,39.27,46.54,37.1,97.5,60.16,132.98,60.16Z"/><path class="cls-3" d="m519.06,416.95h0c-34,0-83.31-22.48-128.68-58.66-15.11-12.05-28.96-25-41.15-38.5l-44.21-48.93,28.33-36.68,70.61,44.64c10.78,6.82,21.46,14.43,31.74,22.62,35.86,28.59,63.68,61.22,78.35,91.89,3.65,7.62,6.18,14.73,7.53,21.12l.52,2.47-3.02.02Zm-208.67-146.29l41.89,46.36c12.04,13.33,25.73,26.13,40.66,38.04,43.73,34.86,90.95,56.8,123.98,57.72-1.37-5.41-3.6-11.33-6.62-17.66-14.4-30.12-41.82-62.23-77.2-90.44-10.16-8.1-20.71-15.62-31.37-22.36l-67.42-42.63-23.92,30.96Zm-226.21,146.29l-3.03-.02.52-2.48c1.35-6.39,3.88-13.49,7.53-21.12,14.67-30.67,42.5-63.3,78.35-91.88,9.81-7.83,20.03-15.15,30.38-21.76l69.3-44.28,29.12,37.53-42.33,46.85c-12.21,13.51-26.05,26.46-41.15,38.5-45.38,36.18-94.69,58.66-128.68,58.66Zm182.1-176.02l-66.12,42.25c-10.23,6.54-20.33,13.77-30.03,21.51-35.37,28.2-62.79,60.32-77.2,90.43-3.03,6.33-5.25,12.25-6.62,17.66,33.02-.92,80.24-22.86,123.98-57.72,14.93-11.9,28.61-24.7,40.66-38.04l40.01-44.28-24.67-31.81Zm92.31-39.69l12.41-13.4c15.91-17.18,34.33-34.15,54.75-50.43,17.94-14.3,37.7-27.93,57.17-39.43l12.77-7.54-10.22,10.75c-15.14,15.93-32.41,31.66-51.33,46.74-10.46,8.34-21.23,16.3-32.02,23.65l-43.51,29.66Zm111.8-90.69c-14.45,9.26-28.77,19.5-42.07,30.1-14.43,11.5-27.85,23.35-40.08,35.37l11.53-7.86c10.7-7.29,21.39-15.19,31.77-23.47,13.92-11.1,26.93-22.54,38.85-34.15Zm-230.62,89.33l-40.41-27.37c-11.2-7.58-22.43-15.85-33.37-24.58-18.39-14.66-35.25-29.94-50.1-45.43l-10.62-11.07,13.18,7.86c18.97,11.32,38.2,24.64,55.61,38.53,19.64,15.66,37.46,31.97,52.98,48.5l12.73,13.56Zm-108.22-87.55c11.43,11,23.82,21.85,37.02,32.37,10.86,8.66,22,16.86,33.11,24.39l7.73,5.23c-11.66-11.3-24.36-22.44-37.93-33.26-12.61-10.06-26.19-19.82-39.92-28.72Z"/><path class="cls-3" d="m96.03,405.06l1.57-3.58c.48-1.09.99-2.21,1.55-3.39,13.97-29.2,40.7-60.46,75.27-88.02,9.52-7.59,19.43-14.69,29.45-21.09l60.81-38.86,17.28,22.27-36.13,39.99c-11.81,13.06-25.21,25.6-39.84,37.27-35.87,28.59-75.54,49.04-106.11,54.69l-3.84.71Zm167.7-149.41l-57.63,36.82c-9.9,6.32-19.69,13.34-29.09,20.84-33.93,27.05-60.17,57.63-73.92,86.16,29.36-6.5,66.5-26.08,100.32-53.05,14.46-11.53,27.7-23.91,39.35-36.81l33.81-37.42-12.83-16.54Zm243.47,149.41l-3.85-.71c-30.58-5.65-70.25-26.09-106.11-54.69-14.64-11.67-28.05-24.21-39.84-37.27l-38.02-42.08,16.55-21.43,62.12,39.27c10.44,6.6,20.79,13.98,30.76,21.92,34.58,27.57,61.31,58.83,75.27,88.02.56,1.17,1.08,2.3,1.55,3.38l1.57,3.58Zm-182.44-134.96l35.7,39.52c11.65,12.89,24.89,25.27,39.35,36.81,33.82,26.96,70.95,46.55,100.32,53.05-13.75-28.52-39.99-59.1-73.92-86.16-9.85-7.85-20.07-15.14-30.39-21.66l-58.93-37.26-12.14,15.71Z"/><path class="cls-3" d="m116.81,388.55l3.55-5.37c14.48-21.92,35.56-44.21,60.95-64.46,9.23-7.36,18.82-14.23,28.51-20.42l52.32-33.44,5.43,7.01-29.93,33.13c-11.41,12.62-24.37,24.74-38.54,36.04-24.95,19.89-52.04,35.95-76.28,45.21l-6.01,2.3Zm144.38-118.16l-49.14,31.4c-9.57,6.12-19.04,12.9-28.16,20.17-22.89,18.25-42.21,38.15-56.23,57.89,22.19-9.37,46.39-24.12,68.87-42.04,13.99-11.16,26.79-23.13,38.05-35.58l27.61-30.56-.99-1.28Zm225.24,118.16l-6.01-2.3c-24.24-9.26-51.33-25.32-76.28-45.21-14.18-11.3-27.14-23.43-38.54-36.04l-31.84-35.24,4.77-6.18,53.62,33.91c10.1,6.38,20.12,13.53,29.77,21.22,25.4,20.25,46.47,42.54,60.96,64.46l3.55,5.37Zm-147.28-118.99l29.52,32.67c11.24,12.44,24.04,24.41,38.05,35.58,22.47,17.92,46.67,32.67,68.86,42.04-14.03-19.74-33.34-39.64-56.23-57.89-9.54-7.6-19.43-14.66-29.4-20.96l-50.44-31.89-.35.46Z"/><path class="cls-3" d="m433.95,349.18c-7.77-5.19-15.49-10.83-22.94-16.77-7.36-5.87-14.46-12.03-21.1-18.33l2.57-3.22c7.65,5.1,15.24,10.64,22.57,16.48,7.54,6.01,14.77,12.28,21.48,18.61l-2.57,3.23Zm-264.67,0l-2.57-3.23c6.72-6.35,13.94-12.61,21.47-18.61,7.31-5.83,14.9-11.38,22.55-16.47l2.57,3.22c-6.65,6.29-13.74,12.45-21.08,18.31-7.44,5.93-15.16,11.57-22.94,16.77Z"/><circle class="cls-2" cx="297.72" cy="123.42" r="46.75"/><circle class="cls-2" cx="297.72" cy="216.91" r="46.75"/><circle class="cls-2" cx="297.72" cy="310.4" r="46.75"/><circle class="cls-2" cx="297.72" cy="403.89" r="46.75"/><line class="cls-1" x1="272.18" y1="90.59" x2="246.91" y2="38.98"/><path class="cls-4" d="m257.32,34.59c-2.74-5.59-9.5-7.91-15.09-5.17-5.59,2.74-7.91,9.5-5.17,15.09,2.74,5.59,9.5,7.91,15.09,5.17s7.91-9.5,5.17-15.09Z"/><path class="cls-3" d="m258.67,33.93c3.1,6.33.47,14-5.86,17.1-6.33,3.1-14,.47-17.1-5.86-3.1-6.33-.47-14,5.86-17.1s14-.47,17.1,5.86c3.1,6.33-3.1-6.33,0,0Zm-20.26,9.92c2.37,4.84,8.24,6.85,13.08,4.48,4.84-2.37,6.85-8.24,4.48-13.08-2.37-4.84-8.24-6.85-13.08-4.48-4.84,2.37-6.85,8.24-4.48,13.08,2.37,4.84-2.37-4.84,0,0Z"/><line class="cls-1" x1="347.87" y1="38.98" x2="322.59" y2="90.59"/><path class="cls-4" d="m337.46,34.59c2.74-5.59,9.5-7.91,15.09-5.17,5.59,2.74,7.91,9.5,5.17,15.09-2.74,5.59-9.5,7.91-15.09,5.17s-7.91-9.5-5.17-15.09Z"/><path class="cls-3" d="m336.11,33.93c-3.1,6.33-.47,14,5.86,17.1,6.33,3.1,14,.47,17.1-5.86,3.1-6.33.47-14-5.86-17.1s-14-.47-17.1,5.86c-3.1,6.33,3.1-6.33,0,0Zm20.26,9.92c-2.37,4.84-8.24,6.85-13.08,4.48-4.84-2.37-6.85-8.24-4.48-13.08,2.37-4.84,8.24-6.85,13.08-4.48,4.84,2.37,6.85,8.24,4.48,13.08-2.37,4.84,2.37-4.84,0,0Z"/></g></svg>