<?xml version="1.0" encoding="UTF-8"?>
<svg id="Layer_2" data-name="Layer 2" xmlns="http://www.w3.org/2000/svg" viewBox="0 0 588.1 600">
  <defs>
    <style>
      .cls-1 {
        fill: #1f79ff;
      }

      .cls-1, .cls-2 {
        stroke-width: 0px;
      }

      .cls-2 {
        fill: #ffb012;
      }
    </style>
  </defs>
  <g id="Layer_1-2" data-name="Layer 1">
    <g>
      <path class="cls-1" d="m341.49,598.33c-.5,0-.98-.22-1.3-.62l-130.17-161.16L3.47,452.41s-.09,0-.13,0c-.59,0-1.14-.31-1.44-.82-.32-.55-.31-1.23.04-1.76l113.05-173.6L36.07,84.69c-.24-.59-.13-1.26.29-1.74.32-.37.78-.57,1.25-.57.14,0,.29.02.43.06l200.04,53.87L395.87,2.07c.31-.26.69-.4,1.08-.4.22,0,.45.04.66.14.58.25.97.81,1.01,1.45l10.58,206.89,176.43,108.58c.54.33.85.95.79,1.58-.06.63-.47,1.18-1.07,1.41l-193.5,73.99-48.74,201.35c-.15.62-.64,1.1-1.26,1.24-.12.03-.24.04-.37.04Z"/>
      <path class="cls-2" d="m396.95,3.34l10.62,207.77,177.18,109.04-194.32,74.31-48.95,202.2-130.72-161.84L3.34,450.74l113.53-174.33L37.62,84.06l200.88,54.1L396.95,3.34m0-3.34c-.78,0-1.55.27-2.17.8l-157.11,133.67L38.49,80.83c-.29-.08-.58-.12-.87-.12-.95,0-1.87.4-2.51,1.14-.84.96-1.07,2.31-.58,3.48l78.58,190.73L.54,448.92c-.69,1.07-.72,2.43-.07,3.53.6,1.02,1.7,1.64,2.88,1.64.09,0,.17,0,.26,0l205.68-15.8,129.61,160.48c.64.8,1.6,1.24,2.6,1.24.24,0,.49-.03.73-.08,1.24-.28,2.22-1.24,2.52-2.48l48.53-200.49,192.68-73.68c1.19-.45,2.02-1.54,2.13-2.81.12-1.27-.49-2.49-1.58-3.16l-175.68-108.11L400.29,3.17c-.06-1.27-.85-2.39-2.01-2.9-.43-.18-.88-.27-1.32-.27h0Z"/>
      <g>
        <path class="cls-1" d="m336.52,576.22c-.5,0-.98-.22-1.3-.62l-120.71-149.45-191.55,14.71s-.09,0-.13,0c-.59,0-1.14-.31-1.44-.82-.32-.55-.31-1.23.04-1.76l104.84-160.99L53.09,99.66c-.24-.59-.13-1.26.29-1.74.32-.37.78-.57,1.25-.57.14,0,.29.02.43.06l185.5,49.96L386.89,22.88c.31-.26.69-.4,1.08-.4.22,0,.45.04.66.14.58.25.97.81,1.01,1.45l9.81,191.86,163.61,100.69c.54.33.85.95.79,1.58-.06.63-.47,1.18-1.07,1.41l-179.44,68.62-45.2,186.72c-.15.62-.64,1.1-1.26,1.24-.12.03-.24.04-.37.04Z"/>
        <path class="cls-2" d="m387.98,24.15l9.85,192.74,164.36,101.15-180.26,68.93-45.41,187.57-121.26-150.14-192.42,14.78,105.32-161.72L54.63,99.03l186.35,50.19L387.98,24.15m0-3.34c-.78,0-1.55.27-2.17.8l-145.65,123.92L55.5,95.8c-.29-.08-.58-.12-.87-.12-.95,0-1.87.4-2.51,1.14-.84.96-1.07,2.31-.58,3.48l72.85,176.81L20.04,437.36c-.69,1.07-.72,2.43-.07,3.53.61,1.02,1.7,1.64,2.88,1.64.09,0,.17,0,.26,0l190.67-14.65,120.16,148.77c.64.8,1.6,1.24,2.6,1.24.24,0,.49-.03.73-.08,1.24-.28,2.22-1.24,2.52-2.48l44.99-185.86,178.62-68.31c1.19-.45,2.02-1.54,2.13-2.81.12-1.27-.49-2.49-1.58-3.16l-162.87-100.23-9.76-190.98c-.06-1.27-.85-2.39-2.01-2.9-.43-.18-.88-.27-1.32-.27h0Z"/>
      </g>
      <g>
        <path class="cls-1" d="m331.56,554.11c-.5,0-.98-.22-1.3-.62l-111.25-137.75-176.54,13.56s-.09,0-.13,0c-.59,0-1.14-.31-1.44-.82-.32-.55-.31-1.23.04-1.76l96.62-148.38L70.1,114.63c-.24-.59-.13-1.26.29-1.74.32-.37.78-.57,1.25-.57.14,0,.29.02.43.06l170.97,46.04,134.86-114.74c.31-.26.69-.4,1.08-.4.22,0,.45.05.66.14.58.25.97.81,1.01,1.45l9.04,176.83,150.8,92.8c.54.33.85.95.79,1.58-.06.63-.47,1.18-1.07,1.41l-165.38,63.24-41.66,172.09c-.15.62-.64,1.1-1.26,1.24-.12.03-.24.04-.37.04Z"/>
        <path class="cls-2" d="m379,44.96l9.08,177.71,151.55,93.26-166.2,63.56-41.87,172.95-111.81-138.43-177.42,13.63,97.1-149.11L71.65,114l171.82,46.27,135.53-115.31m0-3.34c-.78,0-1.55.27-2.17.8l-134.19,114.17-170.12-45.82c-.29-.08-.58-.12-.87-.12-.95,0-1.87.4-2.51,1.14-.84.96-1.07,2.31-.58,3.48l67.12,162.9-96.14,147.64c-.69,1.07-.72,2.43-.07,3.53.6,1.02,1.7,1.64,2.88,1.64.09,0,.17,0,.26,0l175.67-13.49,110.7,137.06c.64.8,1.6,1.24,2.6,1.24.24,0,.49-.03.73-.08,1.24-.28,2.22-1.24,2.52-2.48l41.45-171.24,164.56-62.93c1.19-.45,2.02-1.54,2.13-2.81.12-1.27-.49-2.49-1.58-3.16l-150.05-92.34-9-175.95c-.06-1.27-.85-2.39-2.01-2.9-.43-.18-.88-.27-1.32-.27h0Z"/>
      </g>
      <path class="cls-1" d="m329.63,523.75c-.37,0-.73-.17-.98-.47l-97.62-120.87-154.92,11.9s-.06,0-.1,0c-.44,0-.85-.23-1.08-.61-.24-.41-.23-.92.03-1.32l84.79-130.2-59.19-143.66c-.18-.44-.1-.95.22-1.31.24-.27.59-.43.94-.43.11,0,.22.01.33.04l150.03,40.4,118.34-100.68c.23-.2.52-.3.81-.3.17,0,.34.03.5.1.44.19.73.61.75,1.09l7.93,155.17,132.32,81.43c.41.25.64.71.59,1.18-.04.48-.35.88-.8,1.05l-145.12,55.5-36.56,151.01c-.11.46-.48.82-.94.93-.09.02-.18.03-.28.03Z"/>
      <path class="cls-2" d="m371.23,77.51l7.97,155.83,132.88,81.78-145.74,55.73-36.71,151.65-98.04-121.38-155.57,11.95,85.15-130.75-59.44-144.27,150.66,40.57,118.84-101.11m0-2.51c-.59,0-1.16.2-1.63.6l-117.83,100.26-149.39-40.23c-.22-.06-.43-.09-.65-.09-.71,0-1.4.3-1.88.85-.63.72-.8,1.73-.44,2.61l58.94,143.05-84.43,129.65c-.52.8-.54,1.83-.06,2.65.45.77,1.28,1.23,2.16,1.23.06,0,.13,0,.19,0l154.26-11.85,97.21,120.36c.48.6,1.2.93,1.95.93.18,0,.37-.02.55-.06.93-.21,1.66-.93,1.89-1.86l36.4-150.37,144.51-55.26c.89-.34,1.51-1.16,1.6-2.11.09-.95-.37-1.87-1.18-2.37l-131.76-81.09-7.9-154.51c-.05-.95-.63-1.8-1.51-2.17-.32-.14-.66-.21-.99-.21h0Z"/>
      <g>
        <path class="cls-1" d="m325.91,507.16c-.37,0-.73-.17-.98-.47l-90.53-112.09-143.66,11.04s-.06,0-.1,0c-.44,0-.85-.23-1.08-.61-.24-.41-.23-.92.03-1.32l78.63-120.74-54.89-133.22c-.18-.44-.1-.95.22-1.31.24-.27.59-.43.94-.43.11,0,.22.01.33.04l139.13,37.47,109.74-93.37c.23-.2.52-.3.81-.3.17,0,.34.03.5.1.44.19.73.61.75,1.09l7.36,143.9,122.71,75.52c.41.25.64.71.59,1.18-.04.48-.35.88-.8,1.05l-134.58,51.46-33.9,140.04c-.11.46-.48.82-.94.93-.09.02-.18.03-.28.03Z"/>
        <path class="cls-2" d="m364.49,93.11l7.39,144.55,123.27,75.86-135.19,51.7-34.06,140.68-90.95-112.6-144.32,11.08,78.99-121.29-55.14-133.83,139.76,37.64,110.24-93.8m0-2.51c-.59,0-1.16.2-1.63.6l-109.24,92.94-138.49-37.3c-.22-.06-.43-.09-.65-.09-.71,0-1.4.3-1.88.85-.63.72-.8,1.73-.44,2.61l54.64,132.61-78.27,120.19c-.52.8-.54,1.83-.06,2.65.45.77,1.28,1.23,2.16,1.23.06,0,.13,0,.19,0l143-10.98,90.12,111.58c.48.6,1.2.93,1.95.93.18,0,.37-.02.55-.06.93-.21,1.66-.93,1.89-1.86l33.75-139.4,133.96-51.23c.89-.34,1.51-1.16,1.6-2.11.09-.95-.37-1.87-1.18-2.37l-122.15-75.17-7.32-143.24c-.05-.95-.63-1.8-1.51-2.17-.32-.14-.66-.21-.99-.21h0Z"/>
      </g>
      <g>
        <path class="cls-1" d="m322.18,490.58c-.37,0-.73-.17-.98-.47l-83.44-103.31-132.41,10.17s-.06,0-.1,0c-.44,0-.85-.23-1.08-.61-.24-.41-.23-.92.03-1.32l72.47-111.28-50.59-122.78c-.18-.44-.1-.95.22-1.31.24-.27.59-.43.94-.43.11,0,.22.01.33.04l128.23,34.53,101.14-86.05c.23-.2.52-.3.81-.3.17,0,.34.03.5.1.44.19.73.61.75,1.09l6.78,132.62,113.1,69.6c.41.25.64.71.59,1.18-.04.48-.35.88-.8,1.05l-124.04,47.43-31.25,129.07c-.11.46-.48.82-.94.93-.09.02-.18.03-.28.03Z"/>
        <path class="cls-2" d="m357.76,108.72l6.81,133.28,113.66,69.95-124.65,47.67-31.4,129.71-83.86-103.82-133.06,10.22,72.83-111.83-50.84-123.39,128.87,34.7,101.64-86.48m0-2.51c-.59,0-1.16.2-1.63.6l-100.64,85.63-127.59-34.36c-.22-.06-.43-.09-.65-.09-.71,0-1.4.3-1.88.85-.63.72-.8,1.73-.44,2.61l50.34,122.17-72.11,110.73c-.52.8-.54,1.83-.06,2.65.45.77,1.28,1.23,2.16,1.23.06,0,.13,0,.19,0l131.75-10.12,83.03,102.8c.48.6,1.2.93,1.95.93.18,0,.37-.02.55-.06.93-.21,1.66-.93,1.89-1.86l31.09-128.43,123.42-47.2c.89-.34,1.51-1.16,1.6-2.11.09-.95-.37-1.87-1.18-2.37l-112.54-69.25-6.75-131.97c-.05-.95-.63-1.8-1.51-2.17-.32-.14-.66-.21-.99-.21h0Z"/>
      </g>
      <path class="cls-1" d="m320.74,467.81c-.28,0-.55-.13-.73-.35l-73.22-90.65-116.19,8.92s-.05,0-.07,0c-.33,0-.64-.17-.81-.46-.18-.31-.17-.69.02-.99l63.59-97.65-44.39-107.74c-.14-.33-.07-.71.16-.98.18-.21.44-.32.71-.32.08,0,.16.01.24.03l112.52,30.3,88.75-75.51c.17-.15.39-.22.61-.22.13,0,.25.03.37.08.33.14.55.46.57.82l5.95,116.38,99.24,61.07c.3.19.48.53.44.89-.03.36-.27.66-.6.79l-108.84,41.62-27.42,113.26c-.08.35-.36.62-.71.7-.07.02-.14.02-.21.02Z"/>
      <path class="cls-2" d="m351.93,133.13l5.98,116.87,99.66,61.33-109.3,41.8-27.53,113.74-73.53-91.04-116.68,8.96,63.86-98.06-44.58-108.2,113,30.43,89.13-75.83m0-1.88c-.44,0-.87.15-1.22.45l-88.38,75.19-112.04-30.17c-.16-.04-.33-.06-.49-.06-.53,0-1.05.23-1.41.64-.47.54-.6,1.3-.33,1.96l44.2,107.29-63.32,97.23c-.39.6-.41,1.37-.04,1.99.34.57.96.92,1.62.92.05,0,.1,0,.14,0l115.69-8.89,72.91,90.27c.36.45.9.7,1.46.7.14,0,.28-.01.41-.05.7-.16,1.25-.7,1.42-1.39l27.3-112.78,108.38-41.45c.67-.26,1.13-.87,1.2-1.58.07-.71-.28-1.4-.89-1.78l-98.82-60.81-5.93-115.88c-.04-.71-.48-1.35-1.13-1.63-.24-.1-.49-.15-.74-.15h0Z"/>
      <g>
        <path class="cls-1" d="m317.94,455.37c-.28,0-.55-.13-.73-.35l-67.9-84.07-107.75,8.28s-.05,0-.07,0c-.33,0-.64-.17-.81-.46-.18-.31-.17-.69.02-.99l58.97-90.56-41.17-99.92c-.14-.33-.07-.71.16-.98.18-.21.44-.32.71-.32.08,0,.16.01.24.03l104.35,28.1,82.3-70.03c.17-.15.39-.22.61-.22.13,0,.25.03.37.08.33.14.55.46.57.82l5.52,107.92,92.03,56.64c.3.19.48.53.44.89-.03.36-.27.66-.6.79l-100.93,38.6-25.43,105.03c-.08.35-.36.62-.71.7-.07.02-.14.02-.21.02Z"/>
        <path class="cls-2" d="m346.88,144.84l5.54,108.42,92.45,56.9-101.4,38.78-25.54,105.51-68.21-84.45-108.24,8.31,59.24-90.97-41.35-100.37,104.82,28.23,82.68-70.35m0-1.88c-.44,0-.87.15-1.22.45l-81.93,69.71-103.87-27.97c-.16-.04-.33-.06-.49-.06-.53,0-1.05.23-1.41.64-.47.54-.6,1.3-.33,1.96l40.98,99.46-58.7,90.14c-.39.6-.41,1.37-.04,1.99.34.57.96.92,1.62.92.05,0,.1,0,.14,0l107.25-8.24,67.59,83.68c.36.45.9.7,1.46.7.14,0,.28-.01.41-.05.7-.16,1.25-.7,1.42-1.39l25.31-104.55,100.47-38.42c.67-.26,1.13-.87,1.2-1.58.07-.71-.28-1.4-.89-1.78l-91.61-56.38-5.49-107.43c-.04-.71-.48-1.35-1.13-1.63-.24-.1-.49-.15-.74-.15h0Z"/>
      </g>
      <g>
        <path class="cls-1" d="m315.15,442.93c-.28,0-.55-.13-.73-.35l-62.58-77.48-99.31,7.63s-.05,0-.07,0c-.33,0-.64-.17-.81-.46-.18-.31-.17-.69.02-.99l54.35-83.46-37.94-92.09c-.14-.33-.07-.71.16-.98.18-.21.44-.32.71-.32.08,0,.16.01.24.03l96.17,25.9,75.86-64.54c.17-.15.39-.22.61-.22.13,0,.25.03.37.08.33.14.55.46.57.82l5.09,99.47,84.82,52.2c.3.19.48.53.44.89-.03.36-.27.66-.6.79l-93.03,35.57-23.43,96.8c-.08.35-.36.62-.71.7-.07.02-.14.02-.21.02Z"/>
        <path class="cls-2" d="m341.83,156.54l5.11,99.96,85.24,52.46-93.49,35.75-23.55,97.28-62.89-77.87-99.8,7.67,54.62-83.88-38.13-92.55,96.65,26.03,76.23-64.86m0-1.88c-.44,0-.87.15-1.22.45l-75.48,64.22-95.69-25.77c-.16-.04-.33-.06-.49-.06-.53,0-1.05.23-1.41.64-.47.54-.6,1.3-.33,1.96l37.75,91.63-54.08,83.05c-.39.6-.41,1.37-.04,1.99.34.57.96.92,1.62.92.05,0,.1,0,.14,0l98.81-7.59,62.27,77.1c.36.45.9.7,1.46.7.14,0,.28-.01.41-.05.7-.16,1.25-.7,1.42-1.39l23.32-96.32,92.57-35.4c.67-.26,1.13-.87,1.2-1.58.07-.71-.28-1.4-.89-1.78l-84.4-51.94-5.06-98.97c-.04-.71-.48-1.35-1.13-1.63-.24-.1-.49-.15-.74-.15h0Z"/>
      </g>
      <path class="cls-1" d="m314.06,425.86c-.21,0-.41-.09-.55-.26l-54.91-67.99-87.14,6.69s-.04,0-.05,0c-.25,0-.48-.13-.61-.35-.14-.23-.13-.52.02-.74l47.69-73.24-33.29-80.81c-.1-.25-.05-.53.12-.73.14-.15.33-.24.53-.24.06,0,.12,0,.18.02l84.39,22.73,66.56-56.63c.13-.11.29-.17.46-.17.09,0,.19.02.28.06.25.11.41.34.42.61l4.46,87.28,74.43,45.81c.23.14.36.4.33.67-.02.27-.2.5-.45.59l-81.63,31.22-20.56,84.94c-.06.26-.27.46-.53.52-.05.01-.1.02-.15.02Z"/>
      <path class="cls-2" d="m337.46,174.85l4.48,87.65,74.75,46-81.98,31.35-20.65,85.3-55.15-68.28-87.51,6.72,47.89-73.55-33.43-81.15,84.75,22.82,66.85-56.87m0-1.41c-.33,0-.65.12-.91.34l-66.28,56.39-84.03-22.63c-.12-.03-.24-.05-.37-.05-.4,0-.79.17-1.06.48-.35.4-.45.97-.25,1.47l33.15,80.46-47.49,72.93c-.29.45-.31,1.03-.03,1.49.26.43.72.69,1.21.69.04,0,.07,0,.11,0l86.77-6.66,54.68,67.7c.27.34.68.52,1.1.52.1,0,.21-.01.31-.03.52-.12.94-.52,1.06-1.04l20.48-84.58,81.28-31.08c.5-.19.85-.65.9-1.19.05-.53-.21-1.05-.67-1.33l-74.12-45.61-4.44-86.91c-.03-.54-.36-1.01-.85-1.22-.18-.08-.37-.12-.56-.12h0Z"/>
      <g>
        <path class="cls-1" d="m311.97,416.53c-.21,0-.41-.09-.55-.26l-50.92-63.05-80.81,6.21s-.04,0-.05,0c-.25,0-.48-.13-.61-.35-.14-.23-.13-.52.02-.74l44.23-67.92-30.87-74.94c-.1-.25-.05-.53.12-.73.14-.15.33-.24.53-.24.06,0,.12,0,.18.02l78.26,21.08,61.73-52.52c.13-.11.29-.17.46-.17.09,0,.19.02.28.06.25.11.41.34.42.61l4.14,80.94,69.02,42.48c.23.14.36.4.33.67-.02.27-.2.5-.45.59l-75.7,28.95-19.07,78.77c-.06.26-.27.46-.53.52-.05.01-.1.02-.15.02Z"/>
        <path class="cls-2" d="m333.67,183.63l4.16,81.31,69.34,42.67-76.05,29.08-19.16,79.13-51.16-63.34-81.18,6.24,44.43-68.23-31.02-75.28,78.62,21.17,62.01-52.76m0-1.41c-.33,0-.65.12-.91.34l-61.45,52.28-77.9-20.98c-.12-.03-.24-.05-.37-.05-.4,0-.79.17-1.06.48-.35.4-.45.97-.25,1.47l30.73,74.59-44.03,67.61c-.29.45-.31,1.03-.03,1.49.26.43.72.69,1.21.69.04,0,.07,0,.11,0l80.44-6.18,50.69,62.76c.27.34.68.52,1.1.52.1,0,.21-.01.31-.03.52-.12.94-.52,1.06-1.04l18.98-78.41,75.35-28.82c.5-.19.85-.65.9-1.19.05-.53-.21-1.05-.67-1.33l-68.71-42.28-4.12-80.57c-.03-.54-.36-1.01-.85-1.22-.18-.08-.37-.12-.56-.12h0Z"/>
      </g>
      <g>
        <path class="cls-1" d="m309.87,407.2c-.21,0-.41-.09-.55-.26l-46.94-58.11-74.48,5.72s-.04,0-.05,0c-.25,0-.48-.13-.61-.35-.14-.23-.13-.52.02-.74l40.76-62.6-28.46-69.07c-.1-.25-.05-.53.12-.73.14-.15.33-.24.53-.24.06,0,.12,0,.18.02l72.13,19.42,56.89-48.41c.13-.11.29-.17.46-.17.09,0,.19.02.28.06.25.11.41.34.42.61l3.81,74.6,63.62,39.15c.23.14.36.4.33.67-.02.27-.2.5-.45.59l-69.77,26.68-17.58,72.6c-.06.26-.27.46-.53.52-.05.01-.1.02-.15.02Z"/>
        <path class="cls-2" d="m329.89,192.4l3.83,74.97,63.93,39.34-70.12,26.81-17.66,72.96-47.17-58.4-74.85,5.75,40.97-62.91-28.6-69.41,72.49,19.52,57.18-48.65m0-1.41c-.33,0-.65.12-.91.34l-56.61,48.17-71.77-19.33c-.12-.03-.24-.05-.37-.05-.4,0-.79.17-1.06.48-.35.4-.45.97-.25,1.47l28.31,68.72-40.56,62.29c-.29.45-.31,1.03-.03,1.49.26.43.72.69,1.21.69.04,0,.07,0,.11,0l74.11-5.69,46.7,57.82c.27.34.68.52,1.1.52.1,0,.21-.01.31-.03.52-.12.94-.52,1.06-1.04l17.49-72.24,69.42-26.55c.5-.19.85-.65.9-1.19.05-.53-.21-1.05-.67-1.33l-63.3-38.96-3.79-74.23c-.03-.54-.36-1.01-.85-1.22-.18-.08-.37-.12-.56-.12h0Z"/>
      </g>
      <path class="cls-1" d="m309.06,394.39c-.16,0-.31-.07-.41-.2l-41.19-50.99-65.35,5.02s-.03,0-.04,0c-.19,0-.36-.1-.45-.26-.1-.17-.1-.39.01-.56l35.77-54.93-24.97-60.61c-.08-.19-.04-.4.09-.55.1-.12.25-.18.4-.18.05,0,.09,0,.14.02l63.29,17.05,49.92-42.48c.1-.08.22-.13.34-.13.07,0,.14.01.21.04.18.08.31.26.32.46l3.35,65.46,55.82,34.35c.17.11.27.3.25.5-.02.2-.15.37-.34.44l-61.22,23.41-15.42,63.71c-.05.2-.2.35-.4.39-.04,0-.08.01-.12.01Z"/>
      <path class="cls-2" d="m326.61,206.14l3.36,65.74,56.06,34.5-61.48,23.51-15.49,63.98-41.36-51.21-65.63,5.04,35.92-55.16-25.08-60.86,63.56,17.12,50.13-42.66m0-1.06c-.25,0-.49.09-.69.25l-49.71,42.3-63.02-16.97c-.09-.02-.18-.04-.28-.04-.3,0-.59.13-.79.36-.27.3-.34.73-.18,1.1l24.86,60.35-35.62,54.69c-.22.34-.23.77-.02,1.12.19.32.54.52.91.52.03,0,.05,0,.08,0l65.08-5,41.01,50.78c.2.25.51.39.82.39.08,0,.15,0,.23-.03.39-.09.7-.39.8-.78l15.36-63.44,60.96-23.31c.38-.14.64-.49.68-.89.04-.4-.16-.79-.5-1l-55.59-34.21-3.33-65.18c-.02-.4-.27-.76-.64-.92-.13-.06-.28-.09-.42-.09h0Z"/>
      <g>
        <path class="cls-1" d="m307.49,387.4c-.16,0-.31-.07-.41-.2l-38.19-47.29-60.61,4.66s-.03,0-.04,0c-.19,0-.36-.1-.45-.26-.1-.17-.1-.39.01-.56l33.17-50.94-23.16-56.2c-.08-.19-.04-.4.09-.55.1-.12.25-.18.4-.18.05,0,.09,0,.14.02l58.69,15.81,46.3-39.39c.1-.08.22-.13.34-.13.07,0,.14.01.21.04.18.08.31.26.32.46l3.1,60.71,51.77,31.86c.17.11.27.3.25.5-.02.2-.15.37-.34.44l-56.78,21.71-14.3,59.08c-.05.2-.2.35-.4.39-.04,0-.08.01-.12.01Z"/>
        <path class="cls-2" d="m323.77,212.72l3.12,60.98,52.01,32-57.04,21.81-14.37,59.35-38.37-47.5-60.88,4.68,33.32-51.17-23.26-56.46,58.96,15.88,46.51-39.57m0-1.06c-.25,0-.49.09-.69.25l-46.08,39.21-58.43-15.73c-.09-.02-.18-.04-.28-.04-.3,0-.59.13-.79.36-.27.3-.34.73-.18,1.1l23.05,55.95-33.02,50.7c-.22.34-.23.77-.02,1.12.19.32.54.52.91.52.03,0,.05,0,.08,0l60.33-4.63,38.02,47.07c.2.25.51.39.82.39.08,0,.15,0,.23-.03.39-.09.7-.39.8-.78l14.24-58.81,56.52-21.61c.38-.14.64-.49.68-.89.04-.4-.16-.79-.5-1l-51.53-31.71-3.09-60.43c-.02-.4-.27-.76-.64-.92-.13-.06-.28-.09-.42-.09h0Z"/>
      </g>
      <g>
        <path class="cls-1" d="m305.92,380.4c-.16,0-.31-.07-.41-.2l-35.2-43.58-55.86,4.29s-.03,0-.04,0c-.19,0-.36-.1-.45-.26-.1-.17-.1-.39.01-.56l30.57-46.95-21.34-51.8c-.08-.19-.04-.4.09-.55.1-.12.25-.18.4-.18.05,0,.09,0,.14.02l54.1,14.57,42.67-36.3c.1-.08.22-.13.34-.13.07,0,.14.01.21.04.18.08.31.26.32.46l2.86,55.95,47.71,29.36c.17.11.27.3.25.5-.02.2-.15.37-.34.44l-52.33,20.01-13.18,54.45c-.05.2-.2.35-.4.39-.04,0-.08.01-.12.01Z"/>
        <path class="cls-2" d="m320.93,219.3l2.87,56.23,47.95,29.51-52.59,20.11-13.25,54.72-35.38-43.8-56.14,4.31,30.72-47.18-21.45-52.06,54.37,14.64,42.88-36.48m0-1.06c-.25,0-.49.09-.69.25l-42.46,36.12-53.83-14.5c-.09-.02-.18-.04-.28-.04-.3,0-.59.13-.79.36-.27.3-.34.73-.18,1.1l21.24,51.54-30.42,46.71c-.22.34-.23.77-.02,1.12.19.32.54.52.91.52.03,0,.05,0,.08,0l55.58-4.27,35.03,43.37c.2.25.51.39.82.39.08,0,.15,0,.23-.03.39-.09.7-.39.8-.78l13.12-54.18,52.07-19.91c.38-.14.64-.49.68-.89.04-.4-.16-.79-.5-1l-47.48-29.22-2.85-55.67c-.02-.4-.27-.76-.64-.92-.13-.06-.28-.09-.42-.09h0Z"/>
      </g>
      <path class="cls-1" d="m305.31,370.79c-.12,0-.23-.05-.31-.15l-30.89-38.24-49.02,3.76s-.02,0-.03,0c-.14,0-.27-.07-.34-.19-.08-.13-.07-.29,0-.42l26.83-41.2-18.73-45.45c-.06-.14-.03-.3.07-.41.08-.09.19-.13.3-.13.03,0,.07,0,.1.01l47.47,12.78,37.44-31.86c.07-.06.16-.09.26-.09.05,0,.11.01.16.03.14.06.23.19.24.34l2.51,49.1,41.87,25.77c.13.08.2.22.19.37-.01.15-.11.28-.25.33l-45.92,17.56-11.57,47.78c-.04.15-.15.26-.3.29-.03,0-.06,0-.09,0Z"/>
      <path class="cls-2" d="m318.47,229.6l2.52,49.3,42.05,25.87-46.11,17.63-11.62,47.98-31.02-38.41-49.22,3.78,26.94-41.37-18.81-45.65,47.67,12.84,37.6-31.99m0-.79c-.19,0-.37.06-.51.19l-37.28,31.72-47.27-12.73c-.07-.02-.14-.03-.21-.03-.22,0-.44.1-.6.27-.2.23-.25.55-.14.83l18.65,45.26-26.71,41.02c-.16.25-.17.58-.02.84.14.24.4.39.68.39.02,0,.04,0,.06,0l48.81-3.75,30.76,38.08c.15.19.38.29.62.29.06,0,.12,0,.17-.02.29-.07.53-.29.6-.59l11.52-47.58,45.72-17.48c.28-.11.48-.37.51-.67.03-.3-.12-.59-.37-.75l-41.69-25.66-2.5-48.89c-.02-.3-.2-.57-.48-.69-.1-.04-.21-.06-.31-.06h0Z"/>
      <g>
        <path class="cls-1" d="m304.13,365.55c-.12,0-.23-.05-.31-.15l-28.65-35.47-45.46,3.49s-.02,0-.03,0c-.14,0-.27-.07-.34-.19-.08-.13-.07-.29,0-.42l24.88-38.2-17.37-42.15c-.06-.14-.03-.3.07-.41.08-.09.19-.13.3-.13.03,0,.07,0,.1.01l44.02,11.86,34.72-29.54c.07-.06.16-.09.26-.09.05,0,.11.01.16.03.14.06.23.19.24.34l2.33,45.53,38.83,23.89c.13.08.2.22.19.37-.01.15-.11.28-.25.33l-42.58,16.28-10.73,44.31c-.04.15-.15.26-.3.29-.03,0-.06,0-.09,0Z"/>
        <path class="cls-2" d="m316.34,234.54l2.34,45.74,39,24-42.78,16.36-10.78,44.51-28.78-35.63-45.66,3.51,24.99-38.38-17.45-42.34,44.22,11.91,34.88-29.68m0-.79c-.19,0-.37.06-.51.19l-34.56,29.41-43.82-11.8c-.07-.02-.14-.03-.21-.03-.22,0-.44.1-.6.27-.2.23-.25.55-.14.83l17.29,41.96-24.76,38.03c-.16.25-.17.58-.02.84.14.24.4.39.68.39.02,0,.04,0,.06,0l45.25-3.48,28.51,35.3c.15.19.38.29.62.29.06,0,.12,0,.17-.02.29-.07.53-.29.6-.59l10.68-44.11,42.39-16.21c.28-.11.48-.37.51-.67.03-.3-.12-.59-.37-.75l-38.65-23.78-2.32-45.32c-.02-.3-.2-.57-.48-.69-.1-.04-.21-.06-.31-.06h0Z"/>
      </g>
      <g>
        <path class="cls-1" d="m302.95,360.3c-.12,0-.23-.05-.31-.15l-26.4-32.69-41.89,3.22s-.02,0-.03,0c-.14,0-.27-.07-.34-.19-.08-.13-.07-.29,0-.42l22.93-35.21-16.01-38.85c-.06-.14-.03-.3.07-.41.08-.09.19-.13.3-.13.03,0,.07,0,.1.01l40.57,10.93,32-27.23c.07-.06.16-.09.26-.09.05,0,.11.01.16.03.14.06.23.19.24.34l2.15,41.96,35.78,22.02c.13.08.2.22.19.37-.01.15-.11.28-.25.33l-39.25,15.01-9.89,40.84c-.04.15-.15.26-.3.29-.03,0-.06,0-.09,0Z"/>
        <path class="cls-2" d="m314.21,239.48l2.16,42.17,35.96,22.13-39.44,15.08-9.94,41.04-26.53-32.85-42.1,3.23,23.04-35.38-16.09-39.04,40.77,10.98,32.16-27.36m0-.79c-.19,0-.37.06-.51.19l-31.84,27.09-40.37-10.87c-.07-.02-.14-.03-.21-.03-.22,0-.44.1-.6.27-.2.23-.25.55-.14.83l15.93,38.66-22.82,35.04c-.16.25-.17.58-.02.84.14.24.4.39.68.39.02,0,.04,0,.06,0l41.69-3.2,26.27,32.53c.15.19.38.29.62.29.06,0,.12,0,.17-.02.29-.07.53-.29.6-.59l9.84-40.64,39.05-14.93c.28-.11.48-.37.51-.67.03-.3-.12-.59-.37-.75l-35.61-21.91-2.13-41.75c-.02-.3-.2-.57-.48-.69-.1-.04-.21-.06-.31-.06h0Z"/>
      </g>
    </g>
  </g>
</svg>