<?xml version="1.0" encoding="UTF-8"?>
<svg id="Layer_2" data-name="Layer 2" xmlns="http://www.w3.org/2000/svg" viewBox="0 0 600 584.96">
  <defs>
    <style>
      .cls-1 {
        fill: #c7ff12;
      }

      .cls-1, .cls-2 {
        stroke-width: 0px;
      }

      .cls-2 {
        fill: #ffb012;
      }
    </style>
  </defs>
  <g id="Layer_1-2" data-name="Layer 1">
    <g>
      <g>
        <polygon class="cls-1" points="300 354.72 167.15 584.66 166.1 584.16 263.04 336.92 .43 376.42 .17 375.28 253.91 296.93 59.3 116.24 60.02 115.33 279.49 264.86 299.42 .04 300.58 .04 320.51 264.86 539.98 115.33 540.7 116.24 346.09 296.93 599.83 375.28 599.57 376.42 336.96 336.92 433.9 584.16 432.85 584.66 300 354.72"/>
        <path class="cls-2" d="m300,.09l20,265.82,220.3-150.1-195.36,181.38,254.71,78.65-263.61-39.65,97.31,248.18-133.36-230.82-133.36,230.82,97.31-248.18L.34,375.84l254.71-78.65L59.7,115.81l220.3,150.1L300,.09m1.17-.09h-2.33l-19.85,263.81L60.35,114.85l-1.45,1.82,193.87,180L0,374.73l.52,2.27,261.61-39.35-96.57,246.29,2.1,1.01,132.35-229.07,132.35,229.07,2.1-1.01-96.57-246.29,261.61,39.35.52-2.27-252.77-78.06,193.87-180-1.45-1.82-218.63,148.96L301.17,0h0Z"/>
      </g>
      <g>
        <polygon class="cls-1" points="186.37 542.06 268.52 332.55 45.99 366.02 45.73 364.89 260.75 298.49 95.83 145.38 96.56 144.46 282.53 271.17 299.42 46.77 300.58 46.77 317.47 271.17 503.44 144.46 504.17 145.38 339.25 298.49 554.27 364.89 554.01 366.02 331.48 332.55 413.63 542.06 412.58 542.56 300 347.71 187.42 542.57 186.37 542.06"/>
        <path class="cls-2" d="m300,46.81l16.96,225.41,186.81-127.28-165.66,153.8,215.98,66.7-223.53-33.62,82.52,210.45-113.08-195.73-113.09,195.73,82.52-210.45-223.53,33.62,215.99-66.7L96.23,144.95l186.81,127.28,16.96-225.41m1.17-.09h-2.33l-16.81,223.39-185.14-126.14-1.45,1.82,164.17,152.43-214.05,66.1.52,2.27,221.53-33.32-81.78,208.57,2.1,1.01,112.07-193.98,112.07,193.98,2.1-1.01-81.78-208.56,221.53,33.32.52-2.27-214.05-66.1,164.17-152.43-1.45-1.82-185.14,126.14-16.81-223.39h0Z"/>
      </g>
      <g>
        <polygon class="cls-1" points="206.64 499.96 274 328.18 91.54 355.62 91.28 354.49 267.58 300.05 132.37 174.51 133.09 173.6 285.57 277.49 299.42 93.5 300.58 93.5 314.43 277.49 466.91 173.6 467.63 174.51 332.42 300.05 508.72 354.49 508.46 355.62 326 328.18 393.36 499.96 392.31 500.46 300 340.7 207.69 500.46 206.64 499.96"/>
        <path class="cls-2" d="m300,93.54l13.92,185,153.31-104.46-135.96,126.23,177.26,54.74-183.46-27.59,67.73,172.72-92.81-160.64-92.81,160.64,67.73-172.72-183.46,27.59,177.26-54.74-135.96-126.23,153.31,104.46,13.92-185m1.17-.09h-2.33l-13.77,182.98-151.64-103.32-1.45,1.82,134.47,124.85-175.33,54.14.52,2.27,181.46-27.29-66.99,170.84,2.1,1.01,91.8-158.89,91.8,158.89,2.1-1.01-66.99-170.83,181.46,27.29.52-2.27-175.33-54.14,134.47-124.85-1.45-1.82-151.64,103.32-13.77-182.98h0Z"/>
      </g>
      <g>
        <polygon class="cls-1" points="226.92 457.86 279.48 323.81 137.1 345.23 136.84 344.09 274.41 301.61 168.9 203.65 169.63 202.73 288.61 283.8 299.42 140.22 300.58 140.22 311.39 283.8 430.37 202.73 431.1 203.64 325.59 301.61 463.16 344.09 462.9 345.23 320.52 323.81 373.08 457.86 372.03 458.36 300 333.69 227.97 458.37 226.92 457.86"/>
        <path class="cls-2" d="m300,140.27l10.88,144.59,119.82-81.64-106.26,98.65,138.54,42.78-143.38-21.57,52.93,134.99-72.54-125.55-72.54,125.55,52.93-134.99-143.38,21.57,138.54-42.78-106.26-98.65,119.82,81.64,10.88-144.59m1.17-.09h-2.33l-10.73,142.57-118.15-80.5-1.45,1.82,104.77,97.28-136.61,42.18.52,2.27,141.38-21.27-52.19,133.11,2.1,1.01,71.53-123.8,71.52,123.79,2.1-1.01-52.19-133.1,141.38,21.27.52-2.27-136.61-42.18,104.77-97.28-1.45-1.82-118.15,80.5-10.73-142.57h0Z"/>
      </g>
    </g>
  </g>
</svg>