<?xml version="1.0" encoding="UTF-8"?>
<svg xmlns="http://www.w3.org/2000/svg" viewBox="0 0 634.97 634.97">
  <defs>
    <style>
      .cls-1 {
        mix-blend-mode: difference;
      }

      .cls-2 {
        isolation: isolate;
      }

      .cls-3 {
        fill: #1f79ff;
      }

      .cls-3, .cls-4 {
        stroke-width: 0px;
      }

      .cls-4 {
        fill: #ffdd05;
      }
    </style>
  </defs>
  <g class="cls-2">
    <g id="Layer_2" data-name="Layer 2">
      <g id="Layer_1-2" data-name="Layer 1">
        <g>
          <g>
            <polygon class="cls-4" points="317.49 253.01 531.21 103.76 381.97 317.49 531.21 531.21 317.49 381.97 103.76 531.21 253.01 317.49 103.76 103.76 317.49 253.01"/>
            <g class="cls-1">
              <path class="cls-3" d="m531.21,103.76l-149.24,213.73,149.24,213.73-213.73-149.24-213.73,149.24,149.24-213.73L103.76,103.76l213.73,149.24,213.73-149.24m24.26-24.26l-27.69,19.34-210.29,146.85L107.2,98.84l-27.69-19.34,19.34,27.69,146.85,210.29-146.85,210.29-19.34,27.69,27.69-19.34,210.29-146.85,210.29,146.85,27.69,19.34-19.34-27.69-146.85-210.29,146.85-210.29,19.34-27.69h0Z"/>
            </g>
          </g>
          <g>
            <polygon class="cls-4" points="281.48 267.93 362.41 33.88 367.04 281.48 601.09 362.41 353.49 367.04 272.57 601.09 267.93 353.49 33.88 272.57 281.48 267.93"/>
            <g class="cls-1">
              <path class="cls-3" d="m362.41,33.88l4.64,247.6,234.05,80.92-247.6,4.64-80.92,234.05-4.64-247.6-234.05-80.92,247.6-4.64,80.92-234.05m5.37-33.88l-11.04,31.92-79.56,230.09-243.41,4.56-33.77.63,31.92,11.04,230.09,79.56,4.56,243.41.63,33.77,11.04-31.92,79.56-230.09,243.41-4.56,33.77-.63-31.92-11.04-230.09-79.56-4.56-243.41-.63-33.77h0Z"/>
            </g>
          </g>
          <g>
            <polygon class="cls-4" points="262.14 299.5 193.65 74.43 335.47 262.14 560.54 193.65 372.83 335.47 441.33 560.54 299.5 372.83 74.43 441.33 262.14 299.5"/>
            <g class="cls-1">
              <path class="cls-3" d="m193.65,74.43l141.82,187.71,225.07-68.5-187.71,141.82,68.5,225.07-141.82-187.71-225.07,68.5,187.71-141.82-68.5-225.07m-15.57-30.56l9.83,32.31,67.28,221.06-184.36,139.3-26.95,20.36,32.31-9.83,221.06-67.28,139.3,184.36,20.36,26.95-9.83-32.31-67.28-221.06,184.36-139.3,26.95-20.36-32.31,9.83-221.06,67.28L198.43,70.82l-20.36-26.95h0Z"/>
            </g>
          </g>
          <g>
            <polygon class="cls-4" points="264.91 334.57 86.59 199.84 300.4 264.91 435.14 86.59 370.06 300.4 548.39 435.14 334.57 370.06 199.84 548.39 264.91 334.57"/>
            <g class="cls-1">
              <path class="cls-3" d="m435.14,86.59l-65.07,213.82,178.32,134.73-213.82-65.07-134.73,178.32,65.07-213.82L86.59,199.84l213.82,65.07,134.73-178.32m15.57-30.56l-20.36,26.95-132.21,174.98-209.81-63.85-32.31-9.83,26.95,20.36,174.98,132.21-63.85,209.81-9.83,32.31,20.36-26.95,132.21-174.98,209.81,63.85,32.31,9.83-26.95-20.36-174.98-132.21,63.85-209.81,9.83-32.31h0Z"/>
            </g>
          </g>
          <g>
            <polygon class="cls-4" points="286.62 359.98 74.33 356 275 286.62 278.97 74.33 348.36 275 560.64 278.97 359.98 348.36 356 560.64 286.62 359.98"/>
            <g class="cls-1">
              <path class="cls-3" d="m278.97,74.33l69.38,200.67,212.29,3.98-200.67,69.38-3.98,212.29-69.38-200.67-212.29-3.98,200.67-69.38,3.98-212.29m-5.37-33.88l-.63,33.77-3.9,208.1-196.71,68.01-31.92,11.04,33.77.63,208.1,3.9,68.01,196.71,11.04,31.92.63-33.77,3.9-208.1,196.71-68.01,31.92-11.04-33.77-.63-208.1-3.9-68.01-196.71-11.04-31.92h0Z"/>
            </g>
          </g>
          <g>
            <polygon class="cls-4" points="317.49 367.38 152.11 482.86 267.59 317.49 152.11 152.11 317.49 267.59 482.86 152.11 367.38 317.49 482.86 482.86 317.49 367.38"/>
            <g class="cls-1">
              <path class="cls-3" d="m482.86,152.11l-115.48,165.38,115.48,165.38-165.38-115.48-165.38,115.48,115.48-165.38-115.48-165.38,165.38,115.48,165.38-115.48m24.26-24.26l-27.69,19.34-161.94,113.08-161.94-113.08-27.69-19.34,19.34,27.69,113.08,161.94-113.08,161.94-19.34,27.69,27.69-19.34,161.94-113.08,161.94,113.08,27.69,19.34-19.34-27.69-113.08-161.94,113.08-161.94,19.34-27.69h0Z"/>
            </g>
          </g>
          <g>
            <polygon class="cls-4" points="345.35 355.83 282.73 536.93 279.14 345.35 98.04 282.73 289.63 279.14 352.24 98.04 355.83 289.63 536.93 352.24 345.35 355.83"/>
            <g class="cls-1">
              <path class="cls-3" d="m352.24,98.04l3.59,191.59,181.1,62.62-191.59,3.59-62.62,181.1-3.59-191.59-181.1-62.62,191.59-3.59,62.62-181.1m5.37-33.88l-11.04,31.92-61.25,177.14-187.4,3.51-33.77.63,31.92,11.04,177.14,61.25,3.51,187.4.63,33.77,11.04-31.92,61.25-177.14,187.4-3.51,33.77-.63-31.92-11.04-177.14-61.25-3.51-187.4-.63-33.77h0Z"/>
            </g>
          </g>
          <g>
            <polygon class="cls-4" points="360.31 331.4 413.31 505.56 303.57 360.31 129.42 413.31 274.66 303.57 221.66 129.42 331.4 274.66 505.56 221.66 360.31 331.4"/>
            <g class="cls-1">
              <path class="cls-3" d="m221.66,129.42l109.74,145.24,174.15-53-145.24,109.74,53,174.15-109.74-145.24-174.15,53,145.24-109.74-53-174.15m-15.57-30.56l9.83,32.31,51.78,170.15-141.9,107.21-26.95,20.36,32.31-9.83,170.15-51.78,107.22,141.9,20.36,26.95-9.83-32.31-51.78-170.15,141.9-107.21,26.95-20.36-32.31,9.83-170.15,51.78-107.21-141.9-20.36-26.95h0Z"/>
            </g>
          </g>
          <g>
            <polygon class="cls-4" points="358.17 304.27 496.15 408.52 330.71 358.17 226.45 496.15 276.8 330.71 138.82 226.45 304.27 276.8 408.52 138.82 358.17 304.27"/>
            <g class="cls-1">
              <path class="cls-3" d="m408.52,138.82l-50.35,165.45,137.98,104.25-165.45-50.35-104.25,137.98,50.35-165.45-137.98-104.25,165.45,50.35,104.25-137.98m15.57-30.56l-20.36,26.95-101.73,134.64-161.44-49.13-32.31-9.83,26.95,20.36,134.64,101.73-49.13,161.44-9.83,32.31,20.36-26.95,101.73-134.64,161.44,49.13,32.31,9.83-26.95-20.36-134.64-101.73,49.13-161.44,9.83-32.31h0Z"/>
            </g>
          </g>
          <g>
            <polygon class="cls-4" points="341.37 284.61 505.64 287.69 350.36 341.37 347.29 505.64 293.6 350.36 129.34 347.29 284.61 293.6 287.69 129.34 341.37 284.61"/>
            <g class="cls-1">
              <path class="cls-3" d="m287.69,129.34l53.69,155.27,164.26,3.08-155.27,53.69-3.08,164.26-53.69-155.27-164.26-3.08,155.27-53.69,3.08-164.26m-5.37-33.88l-.63,33.77-3,160.07-151.31,52.32-31.92,11.04,33.77.63,160.07,3,52.32,151.31,11.04,31.92.63-33.77,3-160.07,151.31-52.32,31.92-11.04-33.77-.63-160.07-3-52.32-151.31-11.04-31.92h0Z"/>
            </g>
          </g>
          <g>
            <polygon class="cls-4" points="317.49 278.88 445.45 189.52 356.09 317.49 445.45 445.45 317.49 356.09 189.52 445.45 278.88 317.49 189.52 189.52 317.49 278.88"/>
            <g class="cls-1">
              <path class="cls-3" d="m445.45,189.52l-89.36,127.97,89.36,127.97-127.97-89.36-127.97,89.36,89.36-127.97-89.36-127.97,127.97,89.36,127.97-89.36m24.26-24.26l-27.69,19.34-124.53,86.96-124.53-86.96-27.69-19.34,19.34,27.69,86.96,124.53-86.96,124.53-19.34,27.69,27.69-19.34,124.53-86.96,124.53,86.96,27.69,19.34-19.34-27.69-86.96-124.53,86.96-124.53,19.34-27.69h0Z"/>
            </g>
          </g>
          <g>
            <polygon class="cls-4" points="295.93 287.81 344.38 147.68 347.16 295.93 487.29 344.38 339.04 347.16 290.59 487.29 287.81 339.04 147.68 290.59 295.93 287.81"/>
            <g class="cls-1">
              <path class="cls-3" d="m344.38,147.68l2.78,148.25,140.13,48.45-148.25,2.78-48.45,140.13-2.78-148.25-140.13-48.45,148.25-2.78,48.45-140.13m5.37-33.88l-11.04,31.92-47.08,136.17-144.06,2.7-33.77.63,31.92,11.04,136.17,47.08,2.7,144.06.63,33.77,11.04-31.92,47.08-136.17,144.06-2.7,33.77-.63-31.92-11.04-136.17-47.08-2.7-144.06-.63-33.77h0Z"/>
            </g>
          </g>
          <g>
            <polygon class="cls-4" points="284.35 306.72 243.34 171.96 328.25 284.35 463.01 243.34 350.62 328.25 391.63 463.01 306.72 350.62 171.96 391.63 284.35 306.72"/>
            <g class="cls-1">
              <path class="cls-3" d="m243.34,171.96l84.92,112.39,134.76-41.01-112.39,84.92,41.01,134.76-84.92-112.39-134.76,41.01,112.39-84.92-41.01-134.76m-15.57-30.56l9.83,32.31,39.79,130.75-109.04,82.39-26.95,20.36,32.31-9.83,130.75-39.79,82.39,109.04,20.36,26.95-9.83-32.31-39.79-130.75,109.04-82.39,26.95-20.36-32.31,9.83-130.75,39.79-82.39-109.04-20.36-26.95h0Z"/>
            </g>
          </g>
          <g>
            <polygon class="cls-4" points="286.01 327.72 179.24 247.05 307.26 286.01 387.93 179.24 348.97 307.26 455.73 387.93 327.72 348.97 247.05 455.73 286.01 327.72"/>
            <g class="cls-1">
              <path class="cls-3" d="m387.93,179.24l-38.96,128.02,106.77,80.67-128.02-38.96-80.67,106.77,38.96-128.02-106.77-80.67,128.02,38.96,80.67-106.77m15.57-30.56l-20.36,26.95-78.14,103.42-124.01-37.74-32.31-9.83,26.95,20.36,103.42,78.14-37.74,124.01-9.83,32.31,20.36-26.95,78.14-103.42,124.01,37.74,32.31,9.83-26.95-20.36-103.42-78.14,37.74-124.01,9.83-32.31h0Z"/>
            </g>
          </g>
          <g>
            <polygon class="cls-4" points="299 342.93 171.9 340.55 292.05 299 294.43 171.9 335.97 292.05 463.07 294.43 342.93 335.97 340.54 463.07 299 342.93"/>
            <g class="cls-1">
              <path class="cls-3" d="m294.43,171.9l41.54,120.15,127.1,2.38-120.15,41.54-2.38,127.1-41.54-120.15-127.1-2.38,120.15-41.54,2.38-127.1m-5.37-33.88l-.63,33.77-2.3,122.91-116.19,40.17-31.92,11.04,33.77.63,122.91,2.3,40.17,116.19,11.04,31.92.63-33.77,2.3-122.91,116.19-40.17,31.92-11.04-33.77-.63-122.91-2.3-40.17-116.19-11.04-31.92h0Z"/>
            </g>
          </g>
          <g>
            <polygon class="cls-4" points="317.49 347.36 218.47 416.5 287.61 317.49 218.47 218.47 317.49 287.61 416.5 218.47 347.36 317.49 416.5 416.5 317.49 347.36"/>
            <g class="cls-1">
              <path class="cls-3" d="m416.5,218.47l-69.14,99.02,69.14,99.02-99.02-69.14-99.02,69.14,69.14-99.02-69.14-99.02,99.02,69.14,99.02-69.14m24.26-24.26l-27.69,19.34-95.58,66.74-95.58-66.74-27.69-19.34,19.34,27.69,66.74,95.58-66.74,95.58-19.34,27.69,27.69-19.34,95.58-66.74,95.58,66.74,27.69,19.34-19.34-27.69-66.74-95.58,66.74-95.58,19.34-27.69h0Z"/>
            </g>
          </g>
          <g>
            <polygon class="cls-4" points="334.17 340.45 296.68 448.88 294.53 334.17 186.09 296.68 300.81 294.53 338.3 186.09 340.45 300.81 448.88 338.3 334.17 340.45"/>
            <g class="cls-1">
              <path class="cls-3" d="m338.3,186.09l2.15,114.71,108.43,37.49-114.71,2.15-37.49,108.43-2.15-114.71-108.43-37.49,114.71-2.15,37.49-108.43m5.37-33.88l-11.04,31.92-36.12,104.47-110.52,2.07-33.77.63,31.92,11.04,104.47,36.12,2.07,110.52.63,33.77,11.04-31.92,36.12-104.47,110.52-2.07,33.77-.63-31.92-11.04-104.47-36.12-2.07-110.52-.63-33.77h0Z"/>
            </g>
          </g>
          <g>
            <polygon class="cls-4" points="343.13 325.82 374.86 430.09 309.15 343.13 204.88 374.86 291.85 309.15 260.11 204.88 325.82 291.85 430.09 260.11 343.13 325.82"/>
            <g class="cls-1">
              <path class="cls-3" d="m260.11,204.88l65.71,86.96,104.27-31.73-86.96,65.71,31.73,104.27-65.71-86.96-104.27,31.73,86.96-65.71-31.73-104.27m-15.57-30.56l9.83,32.31,30.51,100.26-83.62,63.18-26.95,20.36,32.31-9.83,100.26-30.51,63.18,83.62,20.36,26.95-9.83-32.31-30.51-100.26,83.62-63.18,26.95-20.36-32.31,9.83-100.26,30.51-63.18-83.62-20.36-26.95h0Z"/>
            </g>
          </g>
          <g>
            <polygon class="cls-4" points="341.85 309.57 424.46 371.99 325.4 341.85 262.98 424.46 293.13 325.4 210.51 262.98 309.57 293.13 371.99 210.51 341.85 309.57"/>
            <g class="cls-1">
              <path class="cls-3" d="m371.99,210.51l-30.15,99.06,82.61,62.42-99.06-30.15-62.42,82.61,30.15-99.06-82.61-62.42,99.06,30.15,62.42-82.61m15.57-30.56l-20.36,26.95-59.89,79.27-95.05-28.93-32.31-9.83,26.95,20.36,79.27,59.89-28.93,95.05-9.83,32.31,20.36-26.95,59.9-79.27,95.05,28.93,32.31,9.83-26.95-20.36-79.27-59.89,28.93-95.05,9.83-32.31h0Z"/>
            </g>
          </g>
          <g>
            <polygon class="cls-4" points="331.79 297.8 430.14 299.64 337.17 331.79 335.33 430.14 303.18 337.17 204.83 335.33 297.8 303.18 299.64 204.83 331.79 297.8"/>
            <g class="cls-1">
              <path class="cls-3" d="m299.64,204.83l32.14,92.97,98.35,1.84-92.97,32.14-1.84,98.35-32.14-92.97-98.35-1.84,92.97-32.14,1.84-98.35m-5.37-33.88l-.63,33.77-1.76,94.16-89.01,30.78-31.92,11.04,33.77.63,94.16,1.76,30.78,89.01,11.04,31.92.63-33.77,1.76-94.16,89.01-30.78,31.92-11.04-33.77-.63-94.16-1.76-30.78-89.01-11.04-31.92h0Z"/>
            </g>
          </g>
          <g>
            <polygon class="cls-4" points="317.49 294.37 394.1 240.87 340.6 317.49 394.1 394.1 317.49 340.6 240.87 394.1 294.37 317.49 240.87 240.87 317.49 294.37"/>
            <g class="cls-1">
              <path class="cls-3" d="m394.1,240.87l-53.5,76.62,53.5,76.62-76.62-53.5-76.62,53.5,53.5-76.62-53.5-76.62,76.62,53.5,76.62-53.5m24.26-24.26l-27.69,19.34-73.18,51.1-73.18-51.1-27.69-19.34,19.34,27.69,51.1,73.18-51.1,73.18-19.34,27.69,27.69-19.34,73.18-51.1,73.18,51.1,27.69,19.34-19.34-27.69-51.1-73.18,51.1-73.18,19.34-27.69h0Z"/>
            </g>
          </g>
          <g>
            <polygon class="cls-4" points="304.58 299.72 333.59 215.82 335.25 304.58 419.15 333.59 330.39 335.25 301.38 419.15 299.72 330.39 215.82 301.38 304.58 299.72"/>
            <g class="cls-1">
              <path class="cls-3" d="m333.59,215.82l1.66,88.76,83.9,29.01-88.76,1.66-29.01,83.9-1.66-88.76-83.9-29.01,88.76-1.66,29.01-83.9m5.37-33.88l-11.04,31.92-27.64,79.94-84.57,1.58-33.77.63,31.92,11.04,79.94,27.64,1.58,84.57.63,33.77,11.04-31.92,27.64-79.94,84.57-1.58,33.77-.63-31.92-11.04-79.94-27.64-1.58-84.57-.63-33.77h0Z"/>
            </g>
          </g>
          <g>
            <polygon class="cls-4" points="297.65 311.04 273.09 230.36 323.93 297.65 404.62 273.09 337.33 323.93 361.88 404.62 311.04 337.33 230.36 361.88 297.65 311.04"/>
            <g class="cls-1">
              <path class="cls-3" d="m273.09,230.36l50.84,67.29,80.68-24.55-67.29,50.84,24.55,80.68-50.84-67.29-80.68,24.55,67.29-50.84-24.55-80.68m-15.57-30.56l9.83,32.31,23.33,76.68-63.95,48.32-26.95,20.36,32.31-9.83,76.68-23.33,48.32,63.95,20.36,26.95-9.83-32.31-23.33-76.68,63.95-48.32,26.95-20.36-32.31,9.83-76.68,23.33-48.32-63.95-20.36-26.95h0Z"/>
            </g>
          </g>
          <g>
            <polygon class="cls-4" points="298.64 323.61 234.71 275.31 311.36 298.64 359.66 234.71 336.33 311.36 400.26 359.66 323.61 336.33 275.31 400.26 298.64 323.61"/>
            <g class="cls-1">
              <path class="cls-3" d="m359.66,234.71l-23.33,76.65,63.93,48.3-76.65-23.33-48.3,63.93,23.33-76.65-63.93-48.3,76.65,23.33,48.3-63.93m15.57-30.56l-20.36,26.95-45.77,60.58-72.64-22.11-32.31-9.83,26.95,20.36,60.58,45.77-22.11,72.64-9.83,32.31,20.36-26.95,45.77-60.58,72.64,22.11,32.31,9.83-26.95-20.36-60.58-45.77,22.11-72.64,9.83-32.31h0Z"/>
            </g>
          </g>
          <g>
            <polygon class="cls-4" points="306.42 332.72 230.32 331.29 302.25 306.42 303.68 230.32 328.55 302.25 404.65 303.68 332.72 328.55 331.29 404.65 306.42 332.72"/>
            <g class="cls-1">
              <path class="cls-3" d="m303.68,230.32l24.87,71.94,76.1,1.43-71.94,24.87-1.43,76.1-24.87-71.94-76.1-1.43,71.94-24.87,1.43-76.1m-5.37-33.88l-.63,33.77-1.35,71.91-67.98,23.5-31.92,11.04,33.77.63,71.91,1.35,23.5,67.98,11.04,31.92.63-33.77,1.35-71.91,67.98-23.5,31.92-11.04-33.77-.63-71.91-1.35-23.5-67.98-11.04-31.92h0Z"/>
            </g>
          </g>
          <g>
            <polygon class="cls-4" points="317.49 335.37 258.2 376.77 299.6 317.49 258.2 258.2 317.49 299.6 376.77 258.2 335.37 317.49 376.77 376.77 317.49 335.37"/>
            <g class="cls-1">
              <path class="cls-3" d="m376.77,258.2l-41.4,59.29,41.4,59.29-59.29-41.4-59.29,41.4,41.4-59.29-41.4-59.29,59.29,41.4,59.29-41.4m24.26-24.26l-27.69,19.34-55.85,39-55.85-39-27.69-19.34,19.34,27.69,39,55.85-39,55.85-19.34,27.69,27.69-19.34,55.85-39,55.85,39,27.69,19.34-19.34-27.69-39-55.85,39-55.85,19.34-27.69h0Z"/>
            </g>
          </g>
          <g>
            <polygon class="cls-4" points="327.47 331.23 305.03 396.16 303.74 327.47 238.82 305.03 307.5 303.74 329.95 238.82 331.23 307.5 396.16 329.95 327.47 331.23"/>
            <g class="cls-1">
              <path class="cls-3" d="m329.95,238.82l1.29,68.68,64.92,22.45-68.68,1.29-22.45,64.92-1.29-68.68-64.92-22.45,68.68-1.29,22.45-64.92m5.37-33.88l-11.04,31.92-21.08,60.96-64.49,1.21-33.77.63,31.92,11.04,60.96,21.08,1.21,64.49.63,33.77,11.04-31.92,21.08-60.96,64.49-1.21,33.77-.63-31.92-11.04-60.96-21.08-1.21-64.49-.63-33.77h0Z"/>
            </g>
          </g>
          <g>
            <polygon class="cls-4" points="332.84 322.47 351.84 384.91 312.5 332.84 250.07 351.84 302.13 312.5 283.13 250.07 322.47 302.13 384.91 283.13 332.84 322.47"/>
            <g class="cls-1">
              <path class="cls-3" d="m283.13,250.07l39.34,52.07,62.43-19-52.07,39.34,19,62.43-39.34-52.07-62.43,19,52.07-39.34-19-62.43m-15.57-30.56l9.83,32.31,17.78,58.42-48.72,36.81-26.95,20.36,32.31-9.83,58.42-17.78,36.81,48.72,20.36,26.95-9.83-32.31-17.78-58.42,48.72-36.81,26.95-20.36-32.31,9.83-58.42,17.78-36.81-48.72-20.36-26.95h0Z"/>
            </g>
          </g>
          <g>
            <polygon class="cls-4" points="332.07 312.75 381.54 350.12 322.23 332.07 284.85 381.54 302.9 322.23 253.44 284.85 312.75 302.9 350.12 253.44 332.07 312.75"/>
            <g class="cls-1">
              <path class="cls-3" d="m350.12,253.44l-18.05,59.31,49.46,37.37-59.31-18.05-37.37,49.46,18.05-59.31-49.46-37.37,59.31,18.05,37.37-49.46m15.57-30.56l-20.36,26.95-34.85,46.12-55.3-16.83-32.31-9.83,26.95,20.36,46.12,34.85-16.83,55.3-9.83,32.31,20.36-26.95,34.85-46.12,55.3,16.83,32.31,9.83-26.95-20.36-46.12-34.85,16.83-55.3,9.83-32.31h0Z"/>
            </g>
          </g>
          <g>
            <polygon class="cls-4" points="326.05 305.7 384.94 306.8 329.27 326.05 328.17 384.94 308.92 329.27 250.04 328.17 305.7 308.92 306.8 250.04 326.05 305.7"/>
            <g class="cls-1">
              <path class="cls-3" d="m306.8,250.04l19.25,55.66,58.89,1.1-55.66,19.25-1.1,58.89-19.25-55.66-58.89-1.1,55.66-19.25,1.1-58.89m-5.37-33.88l-.63,33.77-1.02,54.7-51.7,17.88-31.92,11.04,33.77.63,54.7,1.02,17.88,51.7,11.04,31.92.63-33.77,1.02-54.7,51.7-17.88,31.92-11.04-33.77-.63-54.7-1.02-17.88-51.7-11.04-31.92h0Z"/>
            </g>
          </g>
          <g>
            <polygon class="cls-4" points="317.49 303.65 363.36 271.61 331.33 317.49 363.36 363.36 317.49 331.33 271.61 363.36 303.65 317.49 271.61 271.61 317.49 303.65"/>
            <g class="cls-1">
              <path class="cls-3" d="m363.36,271.61l-32.03,45.87,32.03,45.87-45.87-32.03-45.87,32.03,32.03-45.87-32.03-45.87,45.87,32.03,45.87-32.03m24.26-24.26l-27.69,19.34-42.44,29.63-42.44-29.63-27.69-19.34,19.34,27.69,29.63,42.44-29.63,42.44-19.34,27.69,27.69-19.34,42.44-29.63,42.44,29.63,27.69,19.34-19.34-27.69-29.64-42.44,29.64-42.44,19.34-27.69h0Z"/>
            </g>
          </g>
          <g>
            <polygon class="cls-4" points="309.76 306.85 327.13 256.61 328.12 309.76 378.36 327.13 325.21 328.12 307.85 378.36 306.85 325.21 256.61 307.85 309.76 306.85"/>
            <g class="cls-1">
              <path class="cls-3" d="m327.13,256.61l1,53.14,50.24,17.37-53.14,1-17.37,50.24-1-53.14-50.24-17.37,53.14-1,17.37-50.24m5.37-33.88l-11.04,31.92-16,46.28-48.96.92-33.77.63,31.92,11.04,46.28,16,.92,48.96.63,33.77,11.04-31.92,16-46.28,48.96-.92,33.77-.63-31.92-11.04-46.28-16-.92-48.96-.63-33.77h0Z"/>
            </g>
          </g>
          <g>
            <polygon class="cls-4" points="305.61 313.63 290.91 265.32 321.35 305.61 369.65 290.91 329.37 321.35 344.07 369.65 313.63 329.37 265.32 344.07 305.61 313.63"/>
            <g class="cls-1">
              <path class="cls-3" d="m290.91,265.32l30.44,40.29,48.31-14.7-40.29,30.44,14.7,48.31-30.44-40.29-48.31,14.7,40.29-30.44-14.7-48.31m-15.57-30.56l9.83,32.31,13.48,44.3-36.95,27.92-26.95,20.36,32.31-9.83,44.3-13.48,27.92,36.95,20.36,26.95-9.83-32.31-13.48-44.3,36.95-27.92,26.95-20.36-32.31,9.83-44.3,13.48-27.92-36.95-20.36-26.95h0Z"/>
            </g>
          </g>
          <g>
            <polygon class="cls-4" points="306.2 321.15 267.93 292.23 313.82 306.2 342.74 267.93 328.77 313.82 367.05 342.74 321.15 328.77 292.23 367.05 306.2 321.15"/>
            <g class="cls-1">
              <path class="cls-3" d="m342.74,267.93l-13.97,45.89,38.27,28.92-45.89-13.97-28.92,38.27,13.97-45.89-38.27-28.92,45.89,13.97,28.92-38.27m15.57-30.56l-20.36,26.95-26.39,34.93-41.88-12.75-32.31-9.83,26.95,20.36,34.93,26.39-12.75,41.88-9.83,32.31,20.36-26.95,26.39-34.93,41.88,12.75,32.31,9.83-26.95-20.36-34.93-26.39,12.75-41.88,9.83-32.31h0Z"/>
            </g>
          </g>
          <g>
            <polygon class="cls-4" points="310.86 326.61 265.3 325.75 308.37 310.86 309.22 265.3 324.11 308.37 369.68 309.22 326.61 324.11 325.75 369.68 310.86 326.61"/>
            <g class="cls-1">
              <path class="cls-3" d="m309.22,265.3l14.89,43.07,45.56.85-43.07,14.89-.85,45.56-14.89-43.07-45.56-.85,43.07-14.89.85-45.56m-5.37-33.88l-.63,33.77-.77,41.38-39.11,13.52-31.92,11.04,33.77.63,41.38.78,13.52,39.11,11.04,31.92.63-33.77.78-41.38,39.11-13.52,31.92-11.04-33.77-.63-41.38-.78-13.52-39.11-11.04-31.92h0Z"/>
            </g>
          </g>
          <g>
            <polygon class="cls-4" points="317.49 328.2 281.99 352.98 306.78 317.49 281.99 281.99 317.49 306.78 352.98 281.99 328.2 317.49 352.98 352.98 317.49 328.2"/>
            <g class="cls-1">
              <path class="cls-3" d="m352.98,281.99l-24.79,35.5,24.79,35.5-35.5-24.79-35.5,24.79,24.79-35.5-24.79-35.5,35.5,24.79,35.5-24.79m24.26-24.26l-27.69,19.34-32.06,22.39-32.06-22.39-27.69-19.34,19.34,27.69,22.39,32.06-22.39,32.06-19.34,27.69,27.69-19.34,32.06-22.39,32.06,22.39,27.69,19.34-19.34-27.69-22.39-32.06,22.39-32.06,19.34-27.69h0Z"/>
            </g>
          </g>
          <g>
            <polygon class="cls-4" points="323.47 325.72 310.03 364.59 309.26 323.47 270.38 310.03 311.51 309.26 324.95 270.38 325.72 311.51 364.59 324.95 323.47 325.72"/>
            <g class="cls-1">
              <path class="cls-3" d="m324.95,270.38l.77,41.12,38.87,13.44-41.12.77-13.44,38.87-.77-41.12-38.87-13.44,41.12-.77,13.44-38.87m5.37-33.88l-11.04,31.92-12.07,34.91-36.93.69-33.77.63,31.92,11.04,34.91,12.07.69,36.93.63,33.77,11.04-31.92,12.07-34.91,36.93-.69,33.77-.63-31.92-11.04-34.91-12.07-.69-36.93-.63-33.77h0Z"/>
            </g>
          </g>
          <g>
            <polygon class="cls-4" points="326.68 320.47 338.05 357.85 314.5 326.68 277.12 338.05 308.29 314.5 296.92 277.12 320.47 308.29 357.85 296.92 326.68 320.47"/>
            <g class="cls-1">
              <path class="cls-3" d="m296.92,277.12l23.55,31.17,37.38-11.38-31.18,23.55,11.38,37.38-23.55-31.17-37.38,11.38,31.18-23.55-11.38-37.38m-15.57-30.57l9.83,32.31,10.16,33.37-27.83,21.03-26.95,20.36,32.31-9.83,33.37-10.16,21.03,27.83,20.36,26.95-9.83-32.31-10.16-33.37,27.83-21.03,26.95-20.36-32.31,9.83-33.37,10.16-21.03-27.83-20.36-26.95h0Z"/>
            </g>
          </g>
          <g>
            <polygon class="cls-4" points="326.22 314.65 355.84 337.03 320.32 326.22 297.95 355.84 308.75 320.32 279.14 297.95 314.65 308.75 337.03 279.14 326.22 314.65"/>
            <g class="cls-1">
              <path class="cls-3" d="m337.03,279.14l-10.81,35.51,29.62,22.38-35.51-10.81-22.38,29.62,10.81-35.51-29.62-22.38,35.51,10.81,22.38-29.62m15.57-30.56l-20.36,26.95-19.85,26.27-31.5-9.59-32.31-9.83,26.95,20.36,26.27,19.85-9.59,31.5-9.83,32.31,20.36-26.95,19.85-26.27,31.5,9.59,32.31,9.83-26.95-20.36-26.27-19.85,9.59-31.5,9.83-32.31h0Z"/>
            </g>
          </g>
          <g>
            <polygon class="cls-4" points="322.61 310.43 357.87 311.09 324.54 322.61 323.88 357.87 312.36 324.54 277.1 323.88 310.43 312.36 311.09 277.1 322.61 310.43"/>
            <g class="cls-1">
              <path class="cls-3" d="m311.09,277.1l11.52,33.33,35.26.66-33.33,11.52-.66,35.26-11.52-33.33-35.26-.66,33.33-11.52.66-35.26m-5.37-33.88l-.63,33.77-.58,31.07-29.37,10.15-31.92,11.04,33.77.63,31.07.58,10.15,29.37,11.04,31.92.63-33.77.58-31.07,29.37-10.15,31.92-11.04-33.77-.63-31.07-.58-10.15-29.37-11.04-31.92h0Z"/>
            </g>
          </g>
          <g>
            <polygon class="cls-4" points="317.49 309.2 344.95 290.02 325.77 317.49 344.95 344.95 317.49 325.77 290.02 344.95 309.2 317.49 290.02 290.02 317.49 309.2"/>
            <g class="cls-1">
              <path class="cls-3" d="m344.95,290.02l-19.18,27.47,19.18,27.47-27.47-19.18-27.47,19.18,19.18-27.47-19.18-27.47,27.47,19.18,27.47-19.18m-79.19-24.26l19.34,27.69,16.78,24.03-16.78,24.03-19.34,27.69,27.69-19.34,24.03-16.78,24.03,16.78,27.69,19.34-19.34-27.69-16.78-24.03,16.78-24.03,19.34-27.69-27.69,19.34-24.03,16.78-24.03-16.78-27.69-19.34h0Z"/>
            </g>
          </g>
          <g>
            <polygon class="cls-4" points="312.86 311.12 323.26 281.04 323.86 312.86 353.93 323.26 322.11 323.86 311.71 353.93 311.12 322.11 281.04 311.71 312.86 311.12"/>
            <g class="cls-1">
              <path class="cls-3" d="m323.26,281.04l.6,31.82,30.08,10.4-31.82.6-10.4,30.08-.6-31.82-30.08-10.4,31.82-.6,10.4-30.08m5.37-33.88l-11.04,31.92-9.03,26.12-27.63.52-33.77.63,31.92,11.04,26.12,9.03.52,27.63.63,33.77,11.04-31.92,9.03-26.12,27.63-.52,33.77-.63-31.92-11.04-26.12-9.03-.52-27.63-.63-33.77h0Z"/>
            </g>
          </g>
          <g>
            <polygon class="cls-4" points="310.37 315.18 301.57 286.25 319.8 310.37 348.72 301.57 324.6 319.8 333.4 348.72 315.18 324.6 286.25 333.4 310.37 315.18"/>
            <g class="cls-1">
              <path class="cls-3" d="m301.57,286.25l18.23,24.12,28.92-8.8-24.12,18.23,8.8,28.92-18.23-24.12-28.92,8.8,24.12-18.23-8.8-28.92m-15.57-30.56l9.83,32.31,7.58,24.92-20.78,15.7-26.95,20.36,32.31-9.83,24.92-7.58,15.7,20.78,20.36,26.95-9.83-32.31-7.58-24.92,20.78-15.7,26.95-20.36-32.31,9.83-24.92,7.58-15.7-20.78-20.36-26.95h0Z"/>
            </g>
          </g>
          <g>
            <polygon class="cls-4" points="310.73 319.68 287.81 302.37 315.29 310.73 332.61 287.81 324.24 315.29 347.16 332.61 319.68 324.24 302.37 347.16 310.73 319.68"/>
            <g class="cls-1">
              <path class="cls-3" d="m332.61,287.81l-8.36,27.48,22.92,17.31-27.48-8.36-17.31,22.92,8.36-27.48-22.92-17.31,27.48,8.36,17.31-22.92m15.57-30.56l-20.36,26.95-14.79,19.57-23.47-7.14-32.31-9.83,26.95,20.36,19.57,14.79-7.14,23.47-9.83,32.31,20.36-26.95,14.79-19.57,23.47,7.14,32.31,9.83-26.95-20.36-19.57-14.79,7.14-23.47,9.83-32.31h0Z"/>
            </g>
          </g>
          <g>
            <polygon class="cls-4" points="313.52 322.95 286.24 322.44 312.03 313.52 312.54 286.24 321.45 312.03 348.74 312.54 322.95 321.45 322.44 348.74 313.52 322.95"/>
            <g class="cls-1">
              <path class="cls-3" d="m312.54,286.24l8.92,25.79,27.28.51-25.79,8.92-.51,27.28-8.92-25.79-27.28-.51,25.79-8.92.51-27.28m-5.37-33.88l-.63,33.77-.43,23.09-21.83,7.55-31.92,11.04,33.77.63,23.09.43,7.55,21.83,11.04,31.92.63-33.77.43-23.09,21.83-7.55,31.92-11.04-33.77-.63-23.09-.43-7.55-21.83-11.04-31.92h0Z"/>
            </g>
          </g>
          <g>
            <polygon class="cls-4" points="317.49 323.9 296.23 338.74 311.07 317.49 296.23 296.23 317.49 311.07 338.74 296.23 323.9 317.49 338.74 338.74 317.49 323.9"/>
            <g class="cls-1">
              <path class="cls-3" d="m338.74,296.23l-14.84,21.25,14.84,21.25-21.25-14.84-21.25,14.84,14.84-21.25-14.84-21.25,21.25,14.84,21.25-14.84m24.26-24.26l-27.69,19.34-17.82,12.44-17.82-12.44-27.69-19.34,19.34,27.69,12.44,17.82-12.44,17.82-19.34,27.69,27.69-19.34,17.82-12.44,17.82,12.44,27.69,19.34-19.34-27.69-12.44-17.82,12.44-17.82,19.34-27.69h0Z"/>
            </g>
          </g>
          <g>
            <polygon class="cls-4" points="321.07 322.41 313.02 345.69 312.56 321.07 289.28 313.02 313.91 312.56 321.95 289.28 322.41 313.91 345.69 321.95 321.07 322.41"/>
            <g class="cls-1">
              <path class="cls-3" d="m321.95,289.28l.46,24.62,23.27,8.05-24.62.46-8.05,23.27-.46-24.62-23.27-8.05,24.62-.46,8.05-23.27m5.37-33.88l-11.04,31.92-6.68,19.31-20.43.38-33.77.63,31.92,11.04,19.31,6.68.38,20.43.63,33.77,11.04-31.92,6.68-19.31,20.43-.38,33.77-.63-31.92-11.04-19.31-6.68-.38-20.43-.63-33.77h0Z"/>
            </g>
          </g>
          <g>
            <polygon class="cls-4" points="322.99 319.27 329.8 341.66 315.7 322.99 293.32 329.8 311.98 315.7 305.17 293.32 319.28 311.98 341.66 305.17 322.99 319.27"/>
            <g class="cls-1">
              <path class="cls-3" d="m305.17,293.32l14.1,18.67,22.38-6.81-18.67,14.1,6.81,22.38-14.1-18.67-22.38,6.81,18.67-14.1-6.81-22.38m-15.57-30.56l9.83,32.31,5.59,18.37-15.32,11.58-26.95,20.36,32.31-9.83,18.37-5.59,11.58,15.32,20.36,26.95-9.83-32.31-5.59-18.37,15.32-11.58,26.95-20.36-32.31,9.83-18.37,5.59-11.58-15.32-20.36-26.95h0Z"/>
            </g>
          </g>
        </g>
      </g>
    </g>
  </g>
</svg>