<?xml version="1.0" encoding="UTF-8"?><svg id="Layer_2" xmlns="http://www.w3.org/2000/svg" viewBox="0 0 487.82 603"><defs><style>.cls-1{fill:none;stroke:#f0f;stroke-miterlimit:10;stroke-width:6px;}.cls-2{fill:#fff;}.cls-2,.cls-3{stroke-width:0px;}.cls-3{fill:#f0f;}</style></defs><g id="Layer_1-2"><polyline class="cls-1" points="18.04 276.91 88.68 108.17 245.65 108.17"/><circle class="cls-1" cx="19.35" cy="273.64" r="16.35"/><circle class="cls-1" cx="80.18" cy="93.78" r="16.35"/><polyline class="cls-1" points="469.77 276.91 399.14 108.17 242.17 108.17"/><circle class="cls-1" cx="468.47" cy="273.64" r="16.35"/><circle class="cls-1" cx="407.64" cy="93.78" r="16.35"/><polyline class="cls-1" points="18.04 431.91 88.68 263.17 245.65 263.17"/><circle class="cls-1" cx="19.35" cy="428.64" r="16.35"/><circle class="cls-1" cx="80.18" cy="248.79" r="16.35"/><polyline class="cls-1" points="469.77 431.91 399.14 263.17 242.17 263.17"/><circle class="cls-1" cx="468.47" cy="428.64" r="16.35"/><circle class="cls-1" cx="407.64" cy="248.79" r="16.35"/><polyline class="cls-1" points="18.04 586.92 88.68 418.18 245.65 418.18"/><circle class="cls-1" cx="19.35" cy="583.65" r="16.35"/><circle class="cls-1" cx="80.18" cy="403.79" r="16.35"/><polyline class="cls-1" points="469.77 586.92 399.14 418.18 242.17 418.18"/><circle class="cls-1" cx="468.47" cy="583.65" r="16.35"/><circle class="cls-1" cx="407.64" cy="403.79" r="16.35"/><path class="cls-2" d="m198.97,42.17c-11.76,0-21.32-8.79-21.32-19.58s9.56-19.58,21.32-19.58,21.32,8.79,21.32,19.58-9.56,19.58-21.32,19.58Z"/><path class="cls-3" d="m198.97,6c10.1,0,18.32,7.44,18.32,16.58s-8.22,16.58-18.32,16.58-18.32-7.44-18.32-16.58,8.22-16.58,18.32-16.58m0-6c-13.43,0-24.32,10.11-24.32,22.58s10.89,22.58,24.32,22.58,24.32-10.11,24.32-22.58S212.4,0,198.97,0h0Z"/><path class="cls-2" d="m198.97,30.59c-5.37,0-9.74-3.59-9.74-8s4.37-8,9.74-8,9.74,3.59,9.74,8-4.37,8-9.74,8Z"/><path class="cls-3" d="m198.97,17.58c3.65,0,6.74,2.29,6.74,5s-3.09,5-6.74,5-6.74-2.29-6.74-5,3.09-5,6.74-5m0-6c-7.02,0-12.74,4.94-12.74,11s5.72,11,12.74,11,12.74-4.94,12.74-11-5.72-11-12.74-11h0Z"/><path class="cls-2" d="m293.97,42.17c-11.76,0-21.32-8.79-21.32-19.58s9.57-19.58,21.32-19.58,21.32,8.79,21.32,19.58-9.56,19.58-21.32,19.58Z"/><path class="cls-3" d="m293.97,6c10.1,0,18.32,7.44,18.32,16.58s-8.22,16.58-18.32,16.58-18.32-7.44-18.32-16.58,8.22-16.58,18.32-16.58m0-6c-13.43,0-24.32,10.11-24.32,22.58s10.89,22.58,24.32,22.58,24.32-10.11,24.32-22.58S307.4,0,293.97,0h0Z"/><path class="cls-2" d="m293.97,30.59c-5.37,0-9.74-3.59-9.74-8s4.37-8,9.74-8,9.74,3.59,9.74,8-4.37,8-9.74,8Z"/><path class="cls-3" d="m293.97,17.58c3.65,0,6.74,2.29,6.74,5s-3.09,5-6.74,5-6.74-2.29-6.74-5,3.09-5,6.74-5m0-6c-7.02,0-12.74,4.94-12.74,11s5.72,11,12.74,11,12.74-4.94,12.74-11-5.72-11-12.74-11h0Z"/><path class="cls-2" d="m246.55,571.46c-22.08,0-44.03-28.92-60.2-79.33-16.75-52.21-25.98-121.69-25.98-195.63s9.23-143.42,25.98-195.63c16.17-50.42,38.12-79.33,60.2-79.33s44.03,28.91,60.2,79.33c16.75,52.21,25.98,121.69,25.98,195.63s-9.23,143.42-25.98,195.63c-16.18,50.42-38.12,79.33-60.2,79.33Z"/><path class="cls-3" d="m246.55,24.53c20.69,0,41.6,28.16,57.35,77.25,16.66,51.92,25.83,121.08,25.83,194.72s-9.17,142.79-25.83,194.72c-15.75,49.09-36.65,77.25-57.35,77.25s-41.6-28.16-57.35-77.25c-16.66-51.92-25.83-121.08-25.83-194.72s9.17-142.79,25.83-194.72c15.75-49.09,36.65-77.25,57.35-77.25m0-6c-49.25,0-89.18,124.45-89.18,277.96s39.93,277.96,89.18,277.96,89.18-124.45,89.18-277.96S295.8,18.53,246.55,18.53h0Z"/><path class="cls-2" d="m246.55,559.88c-16.23,0-35.07-27.32-49.18-71.29-16.39-51.1-25.42-119.32-25.42-192.09s9.03-141,25.42-192.1c14.11-43.97,32.95-71.29,49.18-71.29s35.07,27.32,49.18,71.29c16.39,51.1,25.42,119.32,25.42,192.1s-9.03,141-25.42,192.09c-14.11,43.97-32.95,71.29-49.18,71.29Z"/><path class="cls-3" d="m246.55,36.11c6.63,0,14.54,6.01,22.28,16.93,8.68,12.23,16.99,30.31,24.03,52.28,16.3,50.81,25.28,118.71,25.28,191.18s-8.98,140.37-25.28,191.18c-7.05,21.96-15.36,40.04-24.03,52.28-7.74,10.92-15.66,16.93-22.28,16.93s-14.54-6.01-22.28-16.93c-8.68-12.23-16.99-30.31-24.03-52.28-16.3-50.81-25.28-118.71-25.28-191.18s8.98-140.37,25.28-191.18c7.05-21.96,15.36-40.04,24.03-52.28,7.74-10.92,15.66-16.93,22.28-16.93m0-6c-17.84,0-37.29,27.43-52.03,73.37-16.49,51.39-25.57,119.93-25.57,193.01s9.08,141.62,25.57,193.01c14.74,45.94,34.19,73.37,52.03,73.37s37.29-27.43,52.03-73.37c16.49-51.39,25.57-119.93,25.57-193.01s-9.08-141.62-25.57-193.01c-14.74-45.94-34.19-73.37-52.03-73.37h0Z"/><path class="cls-2" d="m246.55,548.29c-5.83,0-22.82-15.46-38.15-63.24-16.04-49.99-24.87-116.95-24.87-188.56s8.83-138.57,24.87-188.56c6.78-21.14,14.69-38.41,22.86-49.93,6.52-9.19,12.37-13.31,15.28-13.31,5.83,0,22.82,15.46,38.15,63.24,16.04,49.99,24.87,116.95,24.87,188.56s-8.83,138.57-24.87,188.56c-6.78,21.14-14.69,38.41-22.86,49.93-6.52,9.19-12.38,13.31-15.28,13.31Z"/><path class="cls-3" d="m246.55,47.69c1.17.06,6.07,2.47,13.09,12.47,5.54,7.9,13.89,22.76,22.21,48.69,15.94,49.7,24.73,116.34,24.73,187.64s-8.78,137.94-24.72,187.64c-6.69,20.85-14.46,37.84-22.45,49.11-7.06,9.95-11.92,12.03-12.83,12.05-1.16-.05-6.07-2.46-13.09-12.47-5.54-7.9-13.89-22.76-22.21-48.69-15.94-49.7-24.73-116.34-24.73-187.64s8.78-137.94,24.73-187.64c6.69-20.85,14.45-37.83,22.45-49.11,7.05-9.94,11.9-12.03,12.83-12.05m0-6c-4.63,0-11.26,5.45-17.73,14.57-8.35,11.77-16.4,29.32-23.27,50.75-16.13,50.28-25.01,117.57-25.01,189.47s8.88,139.2,25.01,189.47c15.38,47.93,32.95,65.33,41,65.33,4.63,0,11.26-5.45,17.73-14.57,8.35-11.77,16.4-29.32,23.27-50.75,16.13-50.28,25.01-117.56,25.01-189.47s-8.88-139.2-25.01-189.47c-15.38-47.93-32.95-65.33-41-65.33h0Z"/><path class="cls-2" d="m246.49,535.26c-5.69-5.38-16.71-21.46-27.06-53.74-15.68-48.88-24.32-114.58-24.32-185.02s8.64-136.14,24.32-185.02c6.42-20.02,13.78-36.2,21.28-46.77,2.45-3.46,4.48-5.65,5.9-6.97,5.69,5.38,16.71,21.46,27.06,53.74,15.68,48.88,24.31,114.58,24.31,185.02s-8.63,136.14-24.31,185.02c-6.43,20.02-13.79,36.2-21.28,46.77-2.45,3.46-4.48,5.65-5.9,6.97Z"/><path class="cls-3" d="m246.58,62.08c5.44,6.36,15,21.52,24.23,50.31,15.59,48.59,24.17,113.97,24.17,184.1s-8.58,135.51-24.17,184.1c-6.33,19.74-13.55,35.63-20.87,45.95-1.28,1.81-2.44,3.24-3.42,4.36-5.44-6.36-15-21.52-24.23-50.31-15.59-48.59-24.17-113.97-24.17-184.1s8.58-135.52,24.17-184.1c6.33-19.74,13.55-35.63,20.87-45.95,1.28-1.81,2.44-3.24,3.42-4.36m0-8.24c-1.66,1.2-4.65,3.94-8.32,9.13-7.67,10.82-15.17,27.28-21.69,47.59-15.77,49.16-24.46,115.2-24.46,185.94s8.69,136.77,24.46,185.94c11.55,36.01,24.25,52.81,29.94,56.72,1.66-1.2,4.65-3.95,8.32-9.13,7.67-10.82,15.17-27.28,21.69-47.59,15.77-49.16,24.46-115.2,24.46-185.94s-8.69-136.77-24.46-185.94c-11.55-36.01-24.25-52.82-29.94-56.72h0Z"/><circle class="cls-1" cx="245.79" cy="100.97" r="11.77"/><circle class="cls-1" cx="245.79" cy="144.25" r="11.77"/><circle class="cls-1" cx="245.79" cy="187.52" r="11.77"/><circle class="cls-1" cx="245.79" cy="230.8" r="11.77"/><circle class="cls-1" cx="245.79" cy="274.07" r="11.77"/><circle class="cls-1" cx="245.79" cy="317.35" r="11.77"/><circle class="cls-1" cx="245.79" cy="360.62" r="11.77"/><circle class="cls-1" cx="245.79" cy="403.9" r="11.77"/><circle class="cls-1" cx="245.79" cy="447.17" r="11.77"/><circle class="cls-1" cx="245.79" cy="490.45" r="11.77"/></g></svg>